<svg width="392" height="95" viewBox="0 0 392 95" fill="none" xmlns="http://www.w3.org/2000/svg">
<path d="M55.1901 10.2147V0C55.1393 0 55.0885 0 55.0376 0C52.5983 0 50.2098 0.152459 47.8721 0.457376L49.1934 10.6213C51.1245 10.3672 53.1065 10.2147 55.1393 10.2147H55.1901Z" fill="#65BC46"/>
<path d="M20.9379 50.5655L30.9493 51.8359C31.1018 50.7687 31.3051 49.7523 31.5592 48.736C31.8133 47.7196 32.169 46.7032 32.5755 45.7376L23.2756 41.8753L13.7215 37.9114C12.9592 39.6901 12.3493 41.5704 11.8411 43.4507L1.82969 40.7573C1.21985 43.0442 0.762475 45.4327 0.406738 47.8212L10.6723 49.1933L20.9379 50.5655Z" fill="#65BC46"/>
<path d="M69.4703 1.93115L66.8276 11.7902C68.708 12.2984 70.5883 12.959 72.367 13.6705L76.3309 4.26885C74.0948 3.30328 71.808 2.54099 69.4703 1.93115Z" fill="#65BC46"/>
<path d="M34.0999 82.3278C32.931 81.413 31.7622 80.3966 30.695 79.3802L23.377 86.6475C24.7491 88.0196 26.2229 89.3409 27.7474 90.5097L34.0999 82.3278Z" fill="#65BC46"/>
<path d="M21.8524 63.9818L31.6098 61.39C31.3557 60.3737 31.1524 59.3573 31 58.2901C30.8475 57.2228 30.7967 56.1556 30.7967 55.0376H20.7344C20.7344 56.5622 20.836 58.0868 21.0393 59.5605L10.7738 60.8819C10.5197 58.9507 10.3672 57.0196 10.3672 55.0376H0C0 57.4769 0.152459 59.8655 0.457376 62.2032C0.762294 64.5917 1.21967 66.9802 1.82951 69.2671L11.8918 66.5736L21.8524 63.9818Z" fill="#65BC46"/>
<path d="M35.7769 69.8262C35.1162 68.9622 34.5572 68.0983 33.9982 67.1835C33.49 66.2688 32.9818 65.354 32.5753 64.3376L23.2753 68.1999C23.8343 69.5721 24.4949 70.9442 25.2572 72.2147L16.313 77.3983L7.26709 82.6327C8.48676 84.7163 9.80807 86.6983 11.2818 88.6294C12.7556 90.5606 14.331 92.3392 16.0081 94.0671L23.3769 86.6983C22.0048 85.3261 20.7343 83.8524 19.5146 82.277L27.6966 75.9753L35.7769 69.8262Z" fill="#65BC46"/>
<path d="M61.4409 31.4573C62.4573 31.7114 63.4737 32.0671 64.4393 32.4737L68.3524 23.1737C66.9803 22.6147 65.5573 22.1065 64.0835 21.7L61.4409 31.4573Z" fill="#65BC46"/>
<path d="M50.5149 20.8869L49.1936 10.6721C47.2116 10.9262 45.3313 11.3328 43.451 11.841L40.8084 1.93115C38.4707 2.54099 36.1838 3.3541 33.9985 4.26885L37.9116 13.7721L41.8756 23.3262C40.5034 23.8852 39.1313 24.5967 37.8608 25.359L42.892 34.1C43.8067 33.5918 44.7723 33.0836 45.7379 32.677C46.7034 32.2705 47.7198 31.9147 48.7362 31.6606C49.7526 31.4065 50.769 31.1524 51.8362 31.0508C52.9034 30.8983 54.0215 30.8475 55.1395 30.8475C55.1903 30.8475 55.1903 30.8475 55.2411 30.8475V20.7852C55.1903 20.7852 55.1903 20.7852 55.1395 20.7852C53.5641 20.5311 52.0395 20.6836 50.5149 20.8869Z" fill="#65BC46"/>
<path d="M55.1899 20.5311C56.7145 20.5311 58.1883 20.6327 59.6621 20.836L61.0342 10.6213C59.1031 10.3672 57.1719 10.2147 55.1899 10.2147L55.1899 20.5311Z" fill="#65BC46"/>
<path d="M27.7984 19.5655L21.4968 11.3835C19.5656 12.8573 17.7869 14.4327 16.0591 16.1098L23.3263 23.377L30.6443 30.695C31.7115 29.6278 32.8295 28.6114 34.0492 27.6966C35.2181 26.7819 36.4886 25.918 37.8099 25.1557L32.6263 16.2622C30.9492 17.2786 29.323 18.3458 27.7984 19.5655Z" fill="#65BC46"/>
<path d="M35.6755 40.2492C36.3361 39.3852 37.0476 38.5721 37.7591 37.8098L30.6443 30.6951C29.5771 31.7623 28.6115 32.8803 27.6968 34.1L35.6755 40.2492Z" fill="#65BC46"/>
<path d="M11.3326 21.5475C9.85885 23.4278 8.53754 25.4606 7.31787 27.5442L16.2621 32.7278L25.2064 37.9114C25.9687 36.5901 26.7818 35.3704 27.6965 34.1507L19.5146 27.8491L11.3326 21.5475Z" fill="#65BC46"/>
<path d="M82.7344 7.47046L77.6016 16.2622L72.418 25.2065C73.7393 25.9688 74.9589 26.8327 76.1786 27.7475L82.4803 19.5655L88.7311 11.4852C86.7999 10.0114 84.818 8.63931 82.7344 7.47046Z" fill="#65BC46"/>
<path d="M77.6017 16.2623C75.9246 15.2968 74.1459 14.4328 72.3672 13.6705L68.4033 23.1738C69.7754 23.7328 71.1476 24.4443 72.4181 25.2066L77.6017 16.2623Z" fill="#231F20"/>
<path d="M59.6621 20.8361L58.3408 30.8475C59.408 31 60.4244 31.2033 61.4408 31.4574L64.0834 21.7508C62.6605 21.3443 61.1867 21.0393 59.6621 20.8361Z" fill="#231F20"/>
<path d="M55.0885 10.2147C53.0557 10.2147 51.1245 10.3672 49.1426 10.6213L50.4639 20.836C51.9885 20.6327 53.5131 20.5311 55.0377 20.5311C55.0885 20.5311 55.0885 20.5311 55.1393 20.5311V10.2147C55.1901 10.2147 55.1393 10.2147 55.0885 10.2147Z" fill="#231F20"/>
<path d="M13.7212 37.9622L23.2753 41.9262C23.8343 40.554 24.4949 39.1819 25.2572 37.9114L16.2622 32.677C15.2966 34.4049 14.4327 36.1327 13.7212 37.9622Z" fill="#231F20"/>
<path d="M23.4277 86.6474L30.7457 79.3802C29.6785 78.313 28.7129 77.195 27.7982 75.9753L19.6162 82.2769C20.7851 83.8015 22.0556 85.2753 23.4277 86.6474Z" fill="#231F20"/>
<path d="M25.2065 37.8606L33.9475 42.8918C34.4557 41.977 35.0655 41.0623 35.7262 40.2491L27.6967 34.1C26.782 35.3196 25.9688 36.5901 25.2065 37.8606Z" fill="#231F20"/>
<path d="M20.6328 54.9868V55.0376H30.6951V54.9868C30.6951 53.9196 30.7459 52.8524 30.8984 51.836L20.8869 50.5146C20.7853 51.9884 20.6328 53.513 20.6328 54.9868Z" fill="#231F20"/>
<path d="M13.7211 72.1639L23.2752 68.2C22.7162 66.8278 22.208 65.4049 21.8522 63.9819L11.8916 66.6246C12.349 68.5049 13.0096 70.3852 13.7211 72.1639Z" fill="#231F20"/>
<path d="M34.0493 27.7475L40.1985 35.7262C41.0624 35.0655 41.9264 34.4557 42.8411 33.9475L37.81 25.2065C36.4887 25.9688 35.269 26.782 34.0493 27.7475Z" fill="#231F20"/>
<path fill-rule="evenodd" clip-rule="evenodd" d="M44.8229 79.7359C45.2802 79.8884 45.7376 79.99 46.2458 79.99C46.754 79.99 47.2622 79.8884 47.6688 79.7359C48.1261 79.5327 48.4819 79.2786 48.7868 78.9736C49.0917 78.6687 49.3458 78.2622 49.4983 77.8556C49.6507 77.4491 49.7524 76.9917 49.7524 76.4835C49.7524 76.0261 49.6507 75.5179 49.4983 75.1114C49.3458 74.7048 49.0917 74.2982 48.7868 73.9933C48.4819 73.6376 48.0753 73.4343 47.6688 73.231C47.2114 73.0786 46.754 72.9769 46.2458 72.9769C45.7376 72.9769 45.2294 73.0277 44.8229 73.231C44.3655 73.4343 44.0097 73.6884 43.7048 73.9933C43.3999 74.2982 43.1458 74.7048 42.9934 75.1114C42.8409 75.5179 42.7393 75.9753 42.7393 76.4835C42.7393 76.9409 42.8409 77.4491 42.9934 77.8556C43.1458 78.2622 43.3999 78.6687 43.7048 78.9736C44.0097 79.3294 44.4163 79.5327 44.8229 79.7359ZM47.313 78.9228C46.9573 79.0753 46.6524 79.1261 46.2458 79.1261C45.8901 79.1261 45.5343 79.0753 45.1786 78.9228C44.8737 78.7704 44.5688 78.6179 44.3655 78.3638C44.1622 78.1097 43.9589 77.8048 43.8573 77.4999C43.7048 77.195 43.654 76.8392 43.654 76.4835C43.654 76.1277 43.7557 75.772 43.8573 75.4671C43.9589 75.1114 44.1622 74.8573 44.3655 74.6032C44.6196 74.3999 44.8737 74.1966 45.1786 74.0441C45.5343 73.8917 45.8393 73.8409 46.2458 73.8409C46.6524 73.8409 47.0081 73.8917 47.313 74.0441C47.6179 74.1966 47.9229 74.3491 48.1261 74.6032C48.3294 74.8573 48.5327 75.1622 48.6343 75.4671C48.7868 75.772 48.8376 76.1277 48.8376 76.4835C48.8376 76.8392 48.736 77.195 48.6343 77.4999C48.5327 77.8556 48.3294 78.1097 48.1261 78.3638C47.872 78.5671 47.6179 78.7704 47.313 78.9228Z" fill="#231F20"/>
<path d="M50.9214 75.3147H51.7854V76.0261C51.887 75.7721 52.0903 75.5688 52.3444 75.4671C52.5985 75.3147 52.9034 75.2639 53.2591 75.2639C53.4624 75.2639 53.6657 75.3147 53.869 75.3655C54.0722 75.4163 54.2247 75.518 54.3772 75.6704C54.5296 75.8229 54.6313 75.9753 54.7329 76.2294C54.8345 76.4327 54.8854 76.6868 54.8854 76.9917V79.8884H54.0214V77.2458C54.0214 77.0425 53.9706 76.8393 53.9198 76.6868C53.869 76.5343 53.7673 76.4327 53.7165 76.3311C53.6149 76.2294 53.5132 76.1786 53.4116 76.1278C53.3099 76.077 53.1575 76.077 53.005 76.077C52.8526 76.077 52.6493 76.1278 52.4968 76.1786C52.3444 76.2294 52.1919 76.3311 52.0903 76.4327C51.9886 76.5343 51.887 76.7376 51.8362 76.8901C51.7854 77.0934 51.7345 77.2966 51.7345 77.5507V79.8884H50.8706V75.3147H50.9214Z" fill="#231F20"/>
<path d="M58.5951 76.0769H57.3754V78.1097C57.3754 78.2113 57.3754 78.3638 57.3754 78.4654C57.3754 78.5671 57.4262 78.7195 57.4262 78.8212C57.477 78.9228 57.5279 78.9736 57.6295 79.0753C57.7311 79.1261 57.8328 79.1769 57.9852 79.1769C58.0869 79.1769 58.1885 79.1769 58.2902 79.1261C58.3918 79.1261 58.4934 79.0753 58.5951 79.0244V79.7867C58.4934 79.8375 58.341 79.8884 58.1885 79.8884C58.0361 79.8884 57.8836 79.9392 57.8328 79.9392C57.5279 79.9392 57.2738 79.8884 57.0705 79.7867C56.8672 79.6851 56.7656 79.5834 56.6639 79.431C56.5623 79.2785 56.5115 79.1261 56.5115 78.9228C56.5115 78.7195 56.5115 78.5671 56.5115 78.3638V76.0261H55.5459V75.2638H56.5115V73.9933H57.3754V75.2638H58.5951V76.0769Z" fill="#231F20"/>
<path fill-rule="evenodd" clip-rule="evenodd" d="M60.5262 75.3655C60.2213 75.4671 59.9672 75.6704 59.7131 75.8737L60.1705 76.4327C60.2721 76.331 60.3229 76.2802 60.4246 76.2294C60.4754 76.1786 60.577 76.1278 60.6787 76.0769C60.7295 76.0515 60.793 76.0388 60.8565 76.0261C60.92 76.0134 60.9836 76.0007 61.0344 75.9753C61.136 75.9245 61.2885 75.9245 61.4409 75.9245C61.5934 75.9245 61.7459 75.9753 61.8983 76.0261C62.0508 76.0769 62.1524 76.1278 62.2541 76.2294C62.3557 76.331 62.4065 76.4327 62.4573 76.5343C62.5082 76.6868 62.5082 76.7884 62.5082 76.8901V77.0933H61.8983C61.5426 77.0933 61.1869 77.1442 60.9328 77.195C60.6787 77.2458 60.3737 77.3474 60.1705 77.4491C59.9672 77.5507 59.8147 77.7032 59.6623 77.9065C59.5098 78.0589 59.459 78.313 59.459 78.6179C59.459 78.8212 59.459 79.0245 59.5606 79.1769C59.6623 79.3294 59.7639 79.4819 59.9164 79.5835C60.0688 79.6851 60.2213 79.7868 60.4246 79.8376L60.4246 79.8376C60.6278 79.8884 60.8311 79.9392 61.0344 79.9392C61.3901 79.9392 61.695 79.8376 61.9491 79.736C62.2032 79.6343 62.4065 79.431 62.6098 79.1261C62.6098 79.2278 62.6225 79.3421 62.6352 79.4565C62.6479 79.5708 62.6606 79.6851 62.6606 79.7868H63.4229C63.3721 79.6851 63.3721 79.5835 63.3721 79.431V78.9737V76.6868C63.3721 76.5184 63.3372 76.3849 63.2964 76.2284C63.2879 76.196 63.2792 76.1626 63.2705 76.1278C63.1688 75.9753 63.0672 75.8228 62.9147 75.6704C62.7623 75.5179 62.6098 75.4163 62.3557 75.3147C62.1016 75.2638 61.7967 75.213 61.4918 75.213C61.136 75.213 60.8311 75.2638 60.5262 75.3655ZM61.4918 77.7032C61.695 77.6524 61.8983 77.6524 62.1016 77.6524V77.7032H62.6098V78.0081C62.6098 78.1606 62.6098 78.313 62.559 78.4655C62.5082 78.6179 62.4573 78.7704 62.3557 78.872C62.2541 78.9737 62.1016 79.0753 61.9491 79.1769L61.9491 79.1769C61.7967 79.2278 61.5934 79.2786 61.3393 79.2786C61.0344 79.2786 60.7803 79.2278 60.6278 79.1261C60.4754 79.0245 60.3737 78.8212 60.3737 78.5671C60.3737 78.3638 60.4246 78.2114 60.5262 78.1097C60.6278 78.0081 60.7803 77.9065 60.9328 77.8556C61.0852 77.754 61.2885 77.7032 61.4918 77.7032Z" fill="#231F20"/>
<path d="M64.6427 75.3147H65.5066V76.0261C65.5574 75.9245 65.659 75.7721 65.7099 75.7212C65.8115 75.6196 65.9131 75.518 66.0148 75.4671C66.1164 75.4163 66.2689 75.3655 66.4213 75.3147C66.5738 75.2639 66.6754 75.2639 66.8279 75.2639C66.9804 75.2639 67.082 75.2639 67.1836 75.3147L67.1328 76.2294C67.082 76.2294 66.9804 76.1786 66.9295 76.1786C66.8787 76.1786 66.7771 76.1786 66.7263 76.1786C66.3197 76.1786 66.0148 76.2802 65.7607 76.5343C65.5574 76.7884 65.4049 77.1442 65.4049 77.6016V79.8376H64.541V75.3147H64.6427Z" fill="#231F20"/>
<path fill-rule="evenodd" clip-rule="evenodd" d="M68.1491 73.2311C67.9966 73.3836 67.9458 73.536 67.9458 73.6885C67.9458 73.8918 67.9966 74.0442 68.1491 74.1459C68.3015 74.2983 68.454 74.3491 68.6065 74.3491C68.8097 74.3491 68.9622 74.2475 69.0638 74.1459C69.2163 73.9934 69.2671 73.8409 69.2671 73.6885C69.2671 73.4852 69.1655 73.3327 69.0638 73.2311C68.9114 73.0787 68.7589 73.0278 68.6065 73.0278C68.4032 73.0278 68.2507 73.1295 68.1491 73.2311ZM68.9622 75.3147H68.0983V79.7868H68.9622V75.3147Z" fill="#231F20"/>
<path fill-rule="evenodd" clip-rule="evenodd" d="M70.2326 76.6359C70.0801 76.89 70.0293 77.2458 70.0293 77.5507C70.0293 77.9064 70.0801 78.2113 70.2326 78.4654C70.3342 78.7704 70.5375 79.0245 70.7408 79.2277C70.9441 79.431 71.1981 79.6343 71.5031 79.7359C71.7572 79.8884 72.0621 79.9392 72.4178 79.9392C72.7227 79.9392 73.0277 79.8376 73.3326 79.7359L73.3326 79.7359C73.6375 79.5835 73.8916 79.431 74.0949 79.2277C74.2981 79.0245 74.5014 78.7704 74.6031 78.4654C74.7555 78.2113 74.8063 77.8556 74.8063 77.5507C74.8063 77.2458 74.7047 76.9409 74.6031 76.6359C74.5014 76.331 74.2981 76.0769 74.0949 75.8736C73.8916 75.6704 73.6375 75.4671 73.3326 75.3654C73.0785 75.213 72.7736 75.1622 72.4178 75.1622C72.1129 75.1622 71.808 75.2638 71.5031 75.3654C71.1981 75.4671 70.9441 75.6704 70.7408 75.8736C70.5375 76.0769 70.3342 76.331 70.2326 76.6359ZM71.0457 78.1605C70.9949 78.0081 70.9441 77.754 70.9441 77.5507C70.9441 77.3474 70.9949 77.1441 71.0457 76.9409C71.1473 76.7376 71.249 76.5851 71.3506 76.4327C71.4522 76.331 71.6047 76.2294 71.808 76.1277C71.9604 76.0769 72.2145 76.0261 72.4178 76.0261C72.6211 76.0261 72.8244 76.0261 73.0277 76.1277C73.1801 76.1786 73.3834 76.2802 73.485 76.4327C73.6375 76.5851 73.7391 76.7376 73.7899 76.9409C73.8408 77.0933 73.8916 77.3474 73.8916 77.5507C73.8916 77.754 73.8408 77.9572 73.7899 78.1605C73.6883 78.3638 73.5867 78.5163 73.485 78.6687C73.3834 78.7704 73.2309 78.872 73.0277 78.9736C72.8752 79.0245 72.6211 79.0753 72.4178 79.0753C72.2145 79.0753 72.0113 79.0753 71.808 78.9736C71.6555 78.9228 71.4522 78.8212 71.3506 78.6687C71.1982 78.5163 71.0965 78.3638 71.0457 78.1605Z" fill="#231F20"/>
<path d="M78.8213 73.0786H79.736V79.8376H78.8213V73.0786Z" fill="#231F20"/>
<path d="M81.2095 75.3147H82.0734V76.0261C82.1751 75.7721 82.3784 75.5688 82.6325 75.4671C82.8866 75.3147 83.1915 75.2639 83.5472 75.2639C83.7505 75.2639 83.9538 75.3147 84.157 75.3655C84.3603 75.4163 84.5128 75.518 84.6652 75.6704C84.8177 75.8229 84.9193 75.9753 85.021 76.2294C85.1226 76.4327 85.1734 76.6868 85.1734 76.9917V79.8884H84.3095V77.2458C84.3095 77.0425 84.2587 76.8393 84.2079 76.6868C84.157 76.5343 84.0554 76.4327 84.0046 76.3311C83.9029 76.2294 83.8013 76.1786 83.6997 76.1278C83.598 76.077 83.4456 76.077 83.2931 76.077C83.1407 76.077 82.9374 76.1278 82.7849 76.1786C82.6325 76.2294 82.48 76.3311 82.3784 76.4327C82.2767 76.5343 82.1751 76.7376 82.1243 76.8901C82.0734 77.0934 82.0226 77.2966 82.0226 77.5507V79.8884H81.1587V75.3147H81.2095Z" fill="#231F20"/>
<path d="M88.8834 76.4327C88.7817 76.331 88.6801 76.1786 88.5276 76.1277C88.3752 76.0261 88.1719 75.9753 87.9686 75.9753C87.7653 75.9753 87.6129 76.0261 87.4604 76.1277C87.308 76.2294 87.2572 76.331 87.2572 76.4835C87.2572 76.6359 87.308 76.7376 87.4096 76.7884C87.5113 76.89 87.6129 76.9409 87.7145 76.9917C87.8162 77.0425 87.9686 77.0933 88.0703 77.0933C88.2227 77.0933 88.3244 77.1441 88.426 77.1441C88.6293 77.195 88.7817 77.2458 88.9342 77.2966C89.0867 77.3474 89.2391 77.4491 89.3408 77.5507C89.4424 77.6523 89.544 77.754 89.5949 77.9064C89.6457 78.0589 89.6965 78.2113 89.6965 78.4146C89.6965 78.6687 89.6457 78.872 89.544 79.0753C89.4424 79.2786 89.2899 79.3802 89.1375 79.5327C88.985 79.6343 88.7817 79.7359 88.5785 79.7868C88.3752 79.8376 88.1211 79.8376 87.9178 79.8376C87.5621 79.8376 87.2063 79.7868 86.9522 79.6851C86.6473 79.5835 86.444 79.3802 86.1899 79.0753L86.8506 78.5671C87.0031 78.7195 87.1555 78.8212 87.308 78.9228C87.4604 79.0245 87.6637 79.0753 87.9178 79.0753C88.0194 79.0753 88.1211 79.0753 88.2227 79.0245C88.3244 79.0245 88.426 78.9736 88.5276 78.9228C88.6293 78.872 88.6801 78.8212 88.7309 78.7195C88.7817 78.6687 88.8326 78.5671 88.8326 78.4654C88.8326 78.3638 88.7817 78.2113 88.7309 78.1605C88.6293 78.0589 88.5785 78.0081 88.426 77.9572C88.3244 77.9064 88.2227 77.8556 88.0703 77.8556C87.9686 77.8048 87.8162 77.8048 87.7653 77.8048C87.5621 77.754 87.4096 77.7031 87.2572 77.6523C87.1047 77.6015 86.9522 77.4999 86.7998 77.4491C86.6981 77.3474 86.5965 77.2458 86.4949 77.0933C86.444 76.9409 86.3932 76.7884 86.3932 76.5343C86.3932 76.2802 86.444 76.0769 86.5457 75.9245C86.6473 75.772 86.749 75.6195 86.9522 75.5179C87.1047 75.4163 87.308 75.3146 87.5113 75.2638C87.7145 75.213 87.9178 75.1622 88.1211 75.1622C88.426 75.1622 88.7309 75.213 88.985 75.3146C89.2391 75.4163 89.4932 75.6195 89.6457 75.8736L88.8834 76.4327Z" fill="#231F20"/>
<path d="M93.2538 76.0769H92.0341V78.1097C92.0341 78.2113 92.0341 78.3638 92.0341 78.4654C92.0341 78.5671 92.0849 78.7195 92.0849 78.8212C92.1357 78.9228 92.1866 78.9736 92.2882 79.0753C92.3898 79.1261 92.4915 79.1769 92.6439 79.1769C92.7456 79.1769 92.8472 79.1769 92.9489 79.1261C93.0505 79.1261 93.1521 79.0753 93.2538 79.0244V79.7867C93.1521 79.8375 92.9997 79.8884 92.8472 79.8884C92.6948 79.8884 92.5423 79.9392 92.4915 79.9392C92.1866 79.9392 91.9325 79.8884 91.7292 79.7867C91.5259 79.6851 91.4243 79.5834 91.3226 79.431C91.221 79.2785 91.1702 79.1261 91.1702 78.9228C91.1702 78.7195 91.1702 78.5671 91.1702 78.3638V76.0261H90.2046V75.2638H91.1702V73.9933H92.0341V75.2638H93.2538V76.0769Z" fill="#231F20"/>
<path fill-rule="evenodd" clip-rule="evenodd" d="M94.2702 73.2311C94.1177 73.3836 94.0669 73.536 94.0669 73.6885C94.0669 73.8918 94.1177 74.0442 94.2702 74.1459C94.4226 74.2983 94.5751 74.3491 94.7276 74.3491C94.9308 74.3491 95.0833 74.2475 95.1849 74.1459C95.3374 73.9934 95.3882 73.8409 95.3882 73.6885C95.3882 73.4852 95.2866 73.3327 95.1849 73.2311C95.0325 73.0787 94.88 73.0278 94.7276 73.0278C94.5243 73.0278 94.4226 73.0787 94.2702 73.2311ZM95.1341 75.3147H94.2702V79.7868H95.1341V75.3147Z" fill="#231F20"/>
<path d="M98.9457 76.0769H97.726V78.1097C97.726 78.2113 97.726 78.3638 97.726 78.4654C97.726 78.5671 97.7768 78.7195 97.7768 78.8212C97.8276 78.9228 97.8785 78.9736 97.9801 79.0753C98.0817 79.1261 98.1834 79.1769 98.3358 79.1769C98.4375 79.1769 98.5391 79.1769 98.6407 79.1261C98.7424 79.1261 98.844 79.0753 98.9457 79.0244V79.7867C98.844 79.8375 98.6916 79.8884 98.5391 79.8884C98.3866 79.8884 98.2342 79.9392 98.1834 79.9392C97.8785 79.9392 97.6244 79.8884 97.4211 79.7867C97.2178 79.6851 97.1162 79.5834 97.0145 79.431C96.9129 79.2785 96.8621 79.1261 96.8621 78.9228C96.8621 78.7195 96.8621 78.5671 96.8621 78.3638V76.0261H95.8965V75.2638H96.8621V73.9933H97.726V75.2638H98.9457V76.0769Z" fill="#231F20"/>
<path d="M103.875 79.8376H103.011V79.1261C102.909 79.3802 102.706 79.5835 102.452 79.6852C102.198 79.8376 101.893 79.8884 101.537 79.8884C101.334 79.8884 101.131 79.8376 100.928 79.7868C100.724 79.736 100.572 79.6343 100.419 79.4819C100.267 79.3294 100.165 79.177 100.064 78.9229C99.962 78.7196 99.9111 78.4655 99.9111 78.1606V75.2639H100.775V77.9065C100.775 78.1098 100.826 78.313 100.877 78.4655C100.928 78.6179 101.029 78.7196 101.08 78.8212C101.182 78.9229 101.283 78.9737 101.385 79.0245C101.487 79.0753 101.639 79.0753 101.791 79.0753C101.944 79.0753 102.147 79.0245 102.3 78.9737C102.452 78.9229 102.605 78.8212 102.706 78.7196C102.808 78.6179 102.909 78.4147 102.96 78.2622C103.011 78.0589 103.062 77.8557 103.062 77.6016V75.2639H103.926V79.8376H103.875Z" fill="#231F20"/>
<path d="M107.687 76.0769H106.467V78.1097C106.467 78.2113 106.467 78.3638 106.467 78.4654C106.467 78.5671 106.518 78.7195 106.518 78.8212C106.569 78.9228 106.62 78.9736 106.721 79.0753C106.823 79.1261 106.925 79.1769 107.077 79.1769C107.179 79.1769 107.28 79.1769 107.382 79.1261C107.484 79.1261 107.585 79.0753 107.687 79.0244V79.7867C107.585 79.8375 107.433 79.8884 107.28 79.8884C107.128 79.8884 106.975 79.9392 106.925 79.9392C106.62 79.9392 106.366 79.8884 106.162 79.7867C105.959 79.6851 105.857 79.5834 105.756 79.431C105.654 79.2785 105.603 79.1261 105.603 78.9228C105.603 78.7195 105.603 78.5671 105.603 78.3638V76.0261H104.638V75.2638H105.603V73.9933H106.467V75.2638H107.687V76.0769Z" fill="#231F20"/>
<path fill-rule="evenodd" clip-rule="evenodd" d="M109.415 78.4147C109.313 78.2114 109.262 78.0589 109.262 77.8556V77.8048H112.972V77.4999C112.972 77.195 112.972 76.9409 112.87 76.636C112.769 76.3311 112.616 76.077 112.464 75.8737C112.311 75.6196 112.057 75.4671 111.803 75.3147C111.498 75.1622 111.193 75.1114 110.787 75.1114C110.482 75.1114 110.177 75.213 109.872 75.3147C109.618 75.4671 109.364 75.6196 109.161 75.8229C108.907 76.0261 108.754 76.2802 108.652 76.5852C108.551 76.8393 108.5 77.1442 108.5 77.4999C108.5 77.8048 108.551 78.1097 108.652 78.4147C108.754 78.7196 108.907 78.9737 109.11 79.177C109.313 79.3802 109.516 79.5835 109.821 79.6852C110.126 79.8376 110.431 79.8884 110.787 79.8884C111.651 79.8884 112.311 79.5835 112.769 78.9737L112.108 78.4655C112.056 78.518 112.007 78.5705 111.959 78.6213C111.823 78.767 111.7 78.8983 111.549 78.9737C111.346 79.1261 111.092 79.177 110.838 79.177C110.669 79.177 110.536 79.1421 110.379 79.1012C110.347 79.0928 110.314 79.084 110.279 79.0753C110.075 79.0245 109.923 78.9229 109.77 78.8212C109.618 78.7196 109.516 78.5671 109.415 78.4147ZM111.854 76.6868C111.905 76.8393 111.956 76.9917 111.956 77.195H109.211C109.211 77.0425 109.262 76.8901 109.313 76.7376L109.313 76.7376C109.415 76.5852 109.516 76.4327 109.618 76.3311L110.075 76.0261C110.228 75.9753 110.431 75.9245 110.634 75.9245C110.838 75.9245 111.041 75.9753 111.193 76.0261C111.346 76.077 111.498 76.1786 111.6 76.2802C111.702 76.3819 111.803 76.5343 111.854 76.6868Z" fill="#231F20"/>
<path d="M44.467 86.3425H43.5015V85.5802H44.467V84.5638C44.467 83.954 44.5687 83.4966 44.8228 83.2425C45.0769 82.9376 45.4326 82.7852 45.9916 82.7852C46.0933 82.7852 46.1949 82.7852 46.2965 82.7852C46.3982 82.7852 46.4998 82.7852 46.6523 82.836L46.5506 83.5983C46.449 83.5475 46.3982 83.5475 46.2965 83.5475C46.2457 83.5475 46.1441 83.5475 46.0424 83.5475C45.89 83.5475 45.7375 83.5475 45.6867 83.5983C45.5851 83.6491 45.5342 83.6999 45.4834 83.8015C45.4326 83.9032 45.3818 84.0048 45.3818 84.1065C45.3818 84.2081 45.3818 84.3606 45.3818 84.513V85.5294H46.3982V86.2917H45.3818V90.0524H44.5179V86.3425H44.467Z" fill="#231F20"/>
<path fill-rule="evenodd" clip-rule="evenodd" d="M47.1095 86.9523C46.9571 87.2064 46.9062 87.5622 46.9062 87.8671C46.9062 88.172 46.9571 88.4769 47.1095 88.7818C47.2112 89.0868 47.4144 89.3409 47.6177 89.5441C47.821 89.7474 48.0751 89.9507 48.38 90.0523C48.6341 90.2048 48.939 90.2556 49.2948 90.2556C49.5997 90.2556 49.9046 90.154 50.2095 90.0523L50.2095 90.0523C50.5144 89.8999 50.7685 89.7474 50.9718 89.5441C51.1751 89.3409 51.3784 89.0868 51.48 88.7818C51.6325 88.5278 51.6833 88.172 51.6833 87.8671C51.6833 87.5622 51.5817 87.2573 51.48 86.9523C51.3784 86.6474 51.1751 86.3933 50.9718 86.1901C50.7685 85.9868 50.5144 85.7835 50.2095 85.6819C49.9554 85.5294 49.6505 85.4786 49.2948 85.4786C48.9899 85.4786 48.6849 85.5802 48.38 85.6819C48.0751 85.7835 47.821 85.9868 47.6177 86.1901C47.4144 86.3933 47.2112 86.6474 47.1095 86.9523ZM47.8718 88.4769C47.821 88.3245 47.7702 88.0704 47.7702 87.8671C47.7702 87.613 47.821 87.4097 47.8718 87.2573C47.9735 87.054 48.0751 86.9015 48.1767 86.7491C48.2784 86.6474 48.4308 86.5458 48.6341 86.4441C48.7866 86.3933 49.0407 86.3425 49.244 86.3425C49.4472 86.3425 49.6505 86.3425 49.8538 86.4441C50.0062 86.495 50.2095 86.5966 50.3112 86.7491C50.4636 86.9015 50.5653 87.054 50.6161 87.2573C50.6669 87.4097 50.7177 87.6638 50.7177 87.8671C50.7177 88.0704 50.6669 88.2737 50.6161 88.4769C50.5144 88.6802 50.4128 88.8327 50.3112 88.9851C50.2095 89.0868 50.0571 89.1884 49.8538 89.29C49.7013 89.3409 49.4472 89.3917 49.244 89.3917C49.0407 89.3917 48.8374 89.3917 48.6341 89.29C48.4817 89.2392 48.2784 89.1376 48.1767 88.9851C48.0243 88.8327 47.9226 88.6802 47.8718 88.4769Z" fill="#231F20"/>
<path d="M52.7506 85.5802H53.6145V86.2917C53.6653 86.1901 53.767 86.0376 53.8178 85.9868C53.9194 85.8852 54.0211 85.7835 54.1227 85.7327C54.2243 85.6819 54.3768 85.6311 54.5293 85.5802C54.6817 85.5294 54.7833 85.5294 54.9358 85.5294C55.0883 85.5294 55.1899 85.5294 55.2915 85.5802L55.2407 86.495C55.1899 86.495 55.0883 86.4442 55.0374 86.4442C54.9866 86.4442 54.885 86.4442 54.8342 86.4442C54.4276 86.4442 54.1227 86.5458 53.8686 86.7999C53.6653 87.054 53.5129 87.4097 53.5129 87.8671V90.1032H52.6489V85.5802H52.7506Z" fill="#231F20"/>
<path d="M63.8803 84.8179C63.677 84.5638 63.4737 84.3605 63.1688 84.2589C62.8639 84.1064 62.559 84.0556 62.2541 84.0556C61.8983 84.0556 61.5426 84.1064 61.2377 84.2589C60.9328 84.4114 60.6787 84.6146 60.4754 84.8179C60.2721 85.0212 60.0688 85.3769 59.9672 85.6818C59.8656 86.0376 59.7639 86.3933 59.7639 86.7491C59.7639 87.1048 59.8147 87.4605 59.9164 87.7655C60.018 88.0704 60.1705 88.3753 60.4246 88.5786C60.6278 88.8327 60.8819 88.9851 61.1869 89.1376C61.4918 89.29 61.8475 89.3409 62.2541 89.3409C62.6606 89.3409 62.9655 89.2392 63.2705 89.0868C63.5754 88.9343 63.8295 88.731 64.0328 88.4261L64.7951 88.9851C64.7442 89.0359 64.6426 89.1376 64.541 89.29C64.4393 89.4425 64.236 89.5441 64.0328 89.6966C63.8295 89.8491 63.5754 89.9507 63.2705 90.0523C62.9655 90.154 62.6606 90.2048 62.2541 90.2048C61.7459 90.2048 61.2377 90.1032 60.8311 89.8999C60.4246 89.6966 60.018 89.4425 59.7639 89.0868C59.459 88.7818 59.2557 88.3753 59.0524 87.9687C58.9 87.5622 58.7983 87.1556 58.7983 86.6982C58.7983 86.19 58.9 85.6819 59.0524 85.2753C59.2049 84.8179 59.459 84.4622 59.7639 84.1573C60.0688 83.8523 60.4246 83.5982 60.8819 83.395C61.2885 83.2425 61.7967 83.1409 62.3049 83.1409C62.7623 83.1409 63.1688 83.2425 63.6262 83.395C64.0328 83.5474 64.3885 83.8523 64.6934 84.1573L63.8803 84.8179Z" fill="#231F20"/>
<path fill-rule="evenodd" clip-rule="evenodd" d="M65.7604 86.1392L65.7604 86.1392L66.2178 86.6982C66.3195 86.5966 66.3703 86.5458 66.4719 86.495C66.5227 86.4441 66.6244 86.3933 66.726 86.3425C66.7768 86.3171 66.8404 86.3044 66.9039 86.2917C66.9674 86.279 67.0309 86.2663 67.0818 86.2409C67.1834 86.1901 67.3359 86.1901 67.4883 86.1901C67.6408 86.1901 67.7932 86.2409 67.9457 86.2917C68.0981 86.3425 68.1998 86.3933 68.3014 86.495C68.4031 86.5966 68.4539 86.6982 68.5047 86.7999C68.5555 86.9523 68.5555 87.054 68.5555 87.1556V87.3589H67.9457C67.59 87.3589 67.285 87.4097 66.9801 87.4605L66.9801 87.4605C66.726 87.5114 66.4211 87.613 66.2178 87.7146C66.0145 87.8163 65.8621 87.9687 65.7096 88.172C65.5572 88.3245 65.5063 88.5786 65.5063 88.8835C65.5063 89.0868 65.5063 89.29 65.608 89.4425C65.7096 89.595 65.8113 89.7474 65.9637 89.8491C66.1162 89.9507 66.2686 90.0523 66.4719 90.1032C66.6752 90.154 66.8785 90.2048 67.0818 90.2048C67.4375 90.2048 67.7424 90.1032 67.9965 90.0015C68.2506 89.8999 68.4539 89.6966 68.6572 89.3917C68.6572 89.4933 68.6699 89.6077 68.6826 89.722C68.6953 89.8364 68.708 89.9507 68.708 90.0523H69.4703C69.4195 89.9507 69.4195 89.8491 69.4195 89.6966V89.2392V86.9523C69.4195 86.7839 69.3846 86.6504 69.3437 86.494C69.3353 86.4616 69.3265 86.4282 69.3178 86.3933C69.2162 86.2409 69.1145 86.0884 68.9621 85.936C68.8096 85.7835 68.6572 85.6819 68.4031 85.5802C68.149 85.5294 67.844 85.4786 67.5391 85.4786C67.1834 85.4786 66.8785 85.5294 66.5736 85.631C66.2686 85.7327 66.0145 85.936 65.7604 86.1392ZM67.5391 87.9687C67.7424 87.9179 67.9457 87.9179 68.149 87.9179H68.6572V88.2737C68.6572 88.4261 68.6572 88.5786 68.6063 88.731C68.5555 88.8835 68.5047 89.0359 68.4031 89.1376C68.3014 89.2392 68.149 89.3409 67.9965 89.4425L67.9965 89.4425C67.8441 89.4933 67.6408 89.5441 67.3867 89.5441C67.0818 89.5441 66.8277 89.4933 66.6752 89.3917C66.5227 89.29 66.4211 89.0868 66.4211 88.8327C66.4211 88.6294 66.4719 88.4769 66.5736 88.3753C66.6752 88.2737 66.8277 88.172 66.9801 88.1212C67.1326 88.0196 67.3359 87.9687 67.5391 87.9687Z" fill="#231F20"/>
<path d="M70.69 85.5802H71.5539V86.2917C71.6556 86.0376 71.8588 85.8343 72.1129 85.7327C72.367 85.5802 72.6719 85.5294 73.0277 85.5294C73.231 85.5294 73.4342 85.5802 73.6375 85.6311C73.8408 85.6819 73.9933 85.7835 74.1457 85.936C74.2982 86.0884 74.3998 86.2409 74.5014 86.495C74.6031 86.6983 74.6539 86.9524 74.6539 87.2573V90.154H73.79V87.5114C73.79 87.3081 73.7392 87.1048 73.6883 86.9524C73.6375 86.7999 73.5359 86.6983 73.4851 86.5966C73.3834 86.495 73.2818 86.4442 73.1801 86.3934C73.0785 86.3425 72.926 86.3425 72.7736 86.3425C72.6211 86.3425 72.4178 86.3934 72.2654 86.4442C72.1129 86.495 71.9605 86.5966 71.8588 86.6983C71.7572 86.7999 71.6556 87.0032 71.6047 87.1556C71.5539 87.3589 71.5031 87.5622 71.5031 87.8163V90.154H70.6392V85.5802H70.69Z" fill="#231F20"/>
<path d="M79.1261 86.7999C78.9737 86.6474 78.8212 86.495 78.6179 86.4441C78.4655 86.3425 78.2622 86.2917 78.0081 86.2917C77.754 86.2917 77.5507 86.3425 77.3983 86.4441C77.2458 86.5458 77.0934 86.6474 76.9409 86.7999C76.8393 86.9523 76.7376 87.1048 76.6868 87.3081C76.636 87.5114 76.5852 87.7146 76.5852 87.9179C76.5852 88.1212 76.636 88.3245 76.6868 88.5278C76.7376 88.731 76.8393 88.8835 76.9917 89.0359C77.0934 89.1884 77.2458 89.29 77.4491 89.3409C77.6016 89.4425 77.8048 89.4425 78.0589 89.4425C78.313 89.4425 78.5163 89.3917 78.6688 89.29C78.8212 89.1884 78.9737 89.0868 79.1261 88.9343L79.736 89.5441C79.5327 89.7982 79.2786 89.9507 78.9737 90.0523C78.6688 90.154 78.3638 90.2048 78.0589 90.2048C77.7032 90.2048 77.3983 90.154 77.0934 90.0523C76.7884 89.9507 76.5343 89.7982 76.3311 89.595C76.1278 89.3917 75.9753 89.1376 75.8229 88.8327C75.7212 88.5278 75.6704 88.2228 75.6704 87.8671C75.6704 87.5114 75.7212 87.2064 75.8229 86.9015C75.9245 86.5966 76.077 86.3425 76.2802 86.1392C76.4835 85.936 76.7376 85.7835 77.0425 85.631C77.3475 85.5294 77.6524 85.4786 78.0081 85.4786C78.313 85.4786 78.6688 85.5294 78.9737 85.631C79.2786 85.7327 79.5327 85.936 79.736 86.1901L79.1261 86.7999Z" fill="#231F20"/>
<path fill-rule="evenodd" clip-rule="evenodd" d="M81.2605 88.731C81.1588 88.5277 81.108 88.3753 81.108 88.172V88.1212H84.8178V87.8163C84.8178 87.5113 84.8178 87.2572 84.7162 86.9523C84.6145 86.6474 84.4621 86.3933 84.3096 86.19C84.1572 85.9359 83.9031 85.7835 83.649 85.631C83.3441 85.4786 83.0391 85.4277 82.6326 85.4277C82.3277 85.4277 82.0227 85.5294 81.7178 85.631C81.4637 85.7835 81.2096 85.9359 81.0064 86.1392C80.7523 86.3425 80.5998 86.5966 80.4982 86.9015C80.3965 87.1556 80.3457 87.5113 80.3457 87.8163C80.3457 88.1212 80.3965 88.4261 80.4982 88.731C80.5998 89.0359 80.7523 89.29 80.9555 89.4933C81.1588 89.6966 81.3621 89.8999 81.667 90.0015C81.9719 90.154 82.2768 90.2048 82.6326 90.2048C83.4965 90.2048 84.1572 89.8999 84.6145 89.29L83.9539 88.7818C83.9014 88.8343 83.8523 88.8869 83.8048 88.9376C83.6684 89.0834 83.5456 89.2146 83.3949 89.29C83.1916 89.4425 82.9375 89.4933 82.6834 89.4933C82.515 89.4933 82.3815 89.4584 82.225 89.4176C82.1926 89.4091 82.1593 89.4004 82.1244 89.3917C81.9211 89.3408 81.7687 89.2392 81.6162 89.1376C81.4637 89.0359 81.3621 88.8835 81.2605 88.731ZM83.6998 86.9523C83.7506 87.1048 83.8014 87.2572 83.8014 87.4605H81.0572C81.0572 87.3081 81.108 87.1556 81.1588 87.0031L81.1588 87.0031C81.2605 86.8507 81.3621 86.6982 81.4637 86.5966L81.9211 86.2917C82.0736 86.2408 82.2768 86.19 82.4801 86.19C82.6834 86.19 82.8867 86.2408 83.0391 86.2917C83.1916 86.3425 83.3441 86.4441 83.4457 86.5458C83.5473 86.6474 83.649 86.7999 83.6998 86.9523L83.6998 86.9523Z" fill="#231F20"/>
<path d="M85.7833 85.5802H86.6472V86.2917C86.698 86.1901 86.7997 86.0376 86.8505 85.9868C86.9521 85.8852 87.0538 85.7835 87.1554 85.7327C87.257 85.6819 87.4095 85.6311 87.562 85.5802C87.7144 85.5294 87.8161 85.5294 87.9685 85.5294C88.121 85.5294 88.2226 85.5294 88.3243 85.5802L88.2734 86.495C88.2226 86.495 88.121 86.4442 88.0702 86.4442C88.0193 86.4442 87.9177 86.4442 87.8669 86.4442C87.4603 86.4442 87.1554 86.5458 86.9013 86.7999C86.698 87.054 86.5456 87.4097 86.5456 87.8671V90.1032H85.6816V85.5802H85.7833Z" fill="#231F20"/>
<path fill-rule="evenodd" clip-rule="evenodd" d="M94.5755 83.395H92.2886V90.1031H93.2033V87.1556H94.2197L95.9476 90.1031H97.0656L95.1345 87.054C95.3886 87.054 95.6427 86.9523 95.8459 86.8507C96.0492 86.7491 96.2017 86.5966 96.3541 86.4441C96.3932 86.366 96.4398 86.2954 96.4852 86.2266C96.5579 86.1162 96.6278 86.0103 96.6591 85.8851C96.7099 85.6818 96.7607 85.4786 96.7607 85.2753C96.7607 85.072 96.7099 84.8179 96.6591 84.6146L96.6591 84.6146C96.5574 84.4113 96.4558 84.2081 96.3033 84.0048C96.1509 83.8015 95.8968 83.6491 95.6427 83.5474C95.3378 83.4458 94.982 83.395 94.5755 83.395ZM94.3722 86.3425H93.1525V84.2081H94.3722C94.5246 84.2081 94.7279 84.2081 94.8804 84.2589C94.982 84.2589 95.0837 84.3041 95.1853 84.3492C95.2361 84.3718 95.2869 84.3944 95.3378 84.4114C95.4394 84.4622 95.541 84.5638 95.6427 84.7163C95.6935 84.8687 95.7443 85.072 95.7443 85.2753C95.7443 85.5294 95.7443 85.6818 95.6427 85.8343C95.5918 85.9359 95.4902 86.0884 95.3378 86.1392L94.8804 86.2917C94.7279 86.3425 94.5246 86.3425 94.3722 86.3425Z" fill="#231F20"/>
<path fill-rule="evenodd" clip-rule="evenodd" d="M98.5393 88.731C98.4376 88.5277 98.3868 88.3753 98.3868 88.172V88.1212H102.097V87.8163C102.097 87.5113 102.097 87.2572 101.995 86.9523C101.893 86.6474 101.741 86.3933 101.588 86.19C101.436 85.9359 101.182 85.7835 100.928 85.631C100.623 85.4786 100.318 85.4277 99.9114 85.4277C99.6065 85.4277 99.3016 85.5294 98.9966 85.631C98.7425 85.7835 98.4884 85.9359 98.2852 86.1392C98.0311 86.3425 97.8786 86.5966 97.777 86.9015C97.6753 87.1556 97.6245 87.5113 97.6245 87.8163C97.6245 88.1212 97.6753 88.4261 97.777 88.731C97.8786 89.0359 98.0311 89.29 98.2343 89.4933C98.4376 89.6966 98.6409 89.8999 98.9458 90.0015C99.2507 90.154 99.5557 90.2048 99.9114 90.2048C100.775 90.2048 101.436 89.8999 101.893 89.29L101.233 88.7818C101.18 88.8343 101.131 88.8869 101.084 88.9376C100.947 89.0834 100.824 89.2146 100.674 89.29C100.47 89.4425 100.216 89.4933 99.9622 89.4933C99.7938 89.4933 99.6603 89.4584 99.5039 89.4176C99.4715 89.4091 99.4381 89.4004 99.4032 89.3917C99.1999 89.3408 99.0475 89.2392 98.895 89.1376C98.7425 89.0359 98.6409 88.8835 98.5393 88.731ZM100.979 86.9523C101.029 87.1048 101.08 87.2572 101.08 87.4605H98.336C98.336 87.3081 98.3868 87.1556 98.4376 87.0031C98.5393 86.8507 98.6409 86.6982 98.7425 86.5966L99.1999 86.2917C99.3524 86.2408 99.5557 86.19 99.7589 86.19C99.9622 86.19 100.165 86.2408 100.318 86.2917C100.47 86.3425 100.623 86.4441 100.725 86.5458C100.826 86.6474 100.928 86.7999 100.979 86.9523L100.979 86.9523Z" fill="#231F20"/>
<path d="M105.4 86.7491C105.298 86.6474 105.197 86.495 105.044 86.4441C104.892 86.3425 104.689 86.2917 104.485 86.2917C104.282 86.2917 104.129 86.3425 103.977 86.4441C103.825 86.5458 103.774 86.6474 103.774 86.7999C103.774 86.9523 103.825 87.054 103.926 87.1048C104.028 87.2064 104.129 87.2573 104.231 87.3081C104.333 87.3589 104.485 87.4097 104.587 87.4097C104.739 87.4097 104.841 87.4605 104.943 87.4605C105.146 87.5114 105.298 87.5622 105.451 87.613C105.603 87.6638 105.756 87.7655 105.857 87.8671C105.959 87.9687 106.061 88.0704 106.111 88.2228C106.162 88.3753 106.213 88.5278 106.213 88.731C106.213 88.9851 106.162 89.1884 106.061 89.3917C105.959 89.595 105.807 89.6966 105.654 89.8491C105.502 89.9507 105.298 90.0523 105.095 90.1032C104.892 90.154 104.638 90.154 104.434 90.154C104.079 90.154 103.723 90.1032 103.469 90.0015C103.164 89.8999 102.961 89.6966 102.707 89.3917L103.367 88.8835C103.52 89.0359 103.672 89.1376 103.825 89.2392C103.977 89.3409 104.18 89.3917 104.434 89.3917C104.536 89.3917 104.638 89.3917 104.739 89.3409C104.841 89.3409 104.943 89.29 105.044 89.2392C105.146 89.1884 105.197 89.1376 105.248 89.0359C105.298 88.9851 105.349 88.8835 105.349 88.7818C105.349 88.6802 105.298 88.5278 105.248 88.4769C105.146 88.3753 105.095 88.3245 104.943 88.2737C104.841 88.2228 104.739 88.172 104.587 88.172C104.485 88.1212 104.333 88.1212 104.282 88.1212C104.079 88.0704 103.926 88.0196 103.774 87.9687C103.621 87.9179 103.469 87.8163 103.316 87.7655C103.215 87.6638 103.113 87.5622 103.011 87.4097C102.961 87.2573 102.91 87.1048 102.91 86.8507C102.91 86.5966 102.961 86.3933 103.062 86.2409C103.164 86.0884 103.266 85.936 103.469 85.8343C103.621 85.7327 103.825 85.631 104.028 85.5802C104.231 85.5294 104.434 85.4786 104.638 85.4786C104.943 85.4786 105.248 85.5294 105.502 85.631C105.756 85.7327 106.01 85.936 106.162 86.1901L105.4 86.7491Z" fill="#231F20"/>
<path fill-rule="evenodd" clip-rule="evenodd" d="M107.991 88.731C107.89 88.5277 107.839 88.3753 107.839 88.172V88.1212H111.549V87.8163C111.549 87.5113 111.549 87.2572 111.447 86.9523C111.346 86.6474 111.193 86.3933 111.041 86.19C110.888 85.9359 110.634 85.7835 110.38 85.631C110.075 85.4786 109.77 85.4277 109.364 85.4277C109.059 85.4277 108.754 85.5294 108.449 85.631C108.195 85.7835 107.941 85.9359 107.737 86.1392C107.483 86.3425 107.331 86.5966 107.229 86.9015C107.127 87.1556 107.077 87.5113 107.077 87.8163C107.077 88.1212 107.127 88.4261 107.229 88.731C107.331 89.0359 107.483 89.29 107.686 89.4933C107.89 89.6966 108.093 89.8999 108.398 90.0015C108.703 90.154 109.008 90.2048 109.364 90.2048C110.227 90.2048 110.888 89.8999 111.346 89.29L110.685 88.7818C110.632 88.8343 110.583 88.8869 110.536 88.9376C110.399 89.0834 110.277 89.2146 110.126 89.29C109.923 89.4425 109.668 89.4933 109.414 89.4933C109.246 89.4933 109.112 89.4584 108.956 89.4176C108.924 89.4091 108.89 89.4004 108.855 89.3917C108.652 89.3408 108.5 89.2392 108.347 89.1376C108.195 89.0359 108.093 88.8835 107.991 88.731ZM110.431 86.9523C110.482 87.1048 110.532 87.2572 110.532 87.4605H107.788C107.788 87.3081 107.839 87.1556 107.89 87.0031C107.991 86.8507 108.093 86.6982 108.195 86.5966L108.652 86.2917C108.805 86.2408 109.008 86.19 109.211 86.19C109.414 86.19 109.618 86.2408 109.77 86.2917C109.923 86.3425 110.075 86.4441 110.177 86.5458C110.278 86.6474 110.38 86.7999 110.431 86.9523L110.431 86.9523Z" fill="#231F20"/>
<path fill-rule="evenodd" clip-rule="evenodd" d="M112.413 86.1392L112.413 86.1392L112.87 86.6982C112.972 86.5966 113.023 86.5458 113.124 86.495C113.175 86.4441 113.277 86.3933 113.378 86.3425C113.429 86.3171 113.493 86.3044 113.556 86.2917C113.62 86.279 113.683 86.2663 113.734 86.2409C113.836 86.1901 113.988 86.1901 114.141 86.1901C114.293 86.1901 114.446 86.2409 114.598 86.2917C114.75 86.3425 114.852 86.3933 114.954 86.495C115.055 86.5966 115.106 86.6982 115.157 86.7999C115.208 86.9523 115.208 87.054 115.208 87.1556V87.3589H114.598C114.242 87.3589 113.937 87.4097 113.632 87.4605L113.632 87.4605C113.378 87.5114 113.073 87.613 112.87 87.7146C112.667 87.8163 112.514 87.9687 112.362 88.172C112.21 88.3245 112.159 88.5786 112.159 88.8835C112.159 89.0868 112.159 89.29 112.26 89.4425C112.362 89.595 112.464 89.7474 112.616 89.8491C112.769 89.9507 112.921 90.0523 113.124 90.1032C113.328 90.154 113.531 90.2048 113.734 90.2048C114.09 90.2048 114.395 90.1032 114.649 90.0015C114.903 89.8999 115.106 89.6966 115.31 89.3917C115.31 89.4933 115.322 89.6077 115.335 89.722C115.348 89.8364 115.36 89.9507 115.36 90.0523H116.123C116.072 89.9507 116.072 89.8491 116.072 89.6966V89.2392V86.9523C116.072 86.7839 116.037 86.6504 115.996 86.494C115.988 86.4616 115.979 86.4282 115.97 86.3933C115.869 86.2409 115.767 86.0884 115.614 85.936C115.462 85.7835 115.31 85.6819 115.055 85.5802C114.801 85.5294 114.496 85.4786 114.191 85.4786C113.836 85.4786 113.531 85.5294 113.226 85.631C112.921 85.7327 112.667 85.936 112.413 86.1392ZM114.242 87.9687C114.446 87.9179 114.649 87.9179 114.852 87.9179H115.36V88.2737C115.36 88.4261 115.36 88.5786 115.31 88.731C115.259 88.8835 115.208 89.0359 115.106 89.1376C115.005 89.2392 114.852 89.3409 114.7 89.4425L114.7 89.4425C114.547 89.4933 114.344 89.5441 114.09 89.5441C113.785 89.5441 113.531 89.4933 113.378 89.3917C113.226 89.29 113.124 89.0868 113.124 88.8327C113.124 88.6294 113.175 88.4769 113.277 88.3753C113.378 88.2737 113.531 88.172 113.683 88.1212C113.836 88.0196 114.039 87.9687 114.242 87.9687Z" fill="#231F20"/>
<path d="M117.546 85.5802H118.41V86.2917C118.461 86.1901 118.562 86.0376 118.613 85.9868C118.715 85.8852 118.816 85.7835 118.918 85.7327C119.02 85.6819 119.172 85.6311 119.325 85.5802C119.477 85.5294 119.579 85.5294 119.731 85.5294C119.884 85.5294 119.985 85.5294 120.087 85.5802L120.036 86.495C119.985 86.495 119.884 86.4442 119.833 86.4442C119.782 86.4442 119.68 86.4442 119.63 86.4442C119.223 86.4442 118.918 86.5458 118.664 86.7999C118.461 87.054 118.308 87.4097 118.308 87.8671V90.1032H117.444V85.5802H117.546Z" fill="#231F20"/>
<path d="M123.949 86.7999C123.796 86.6474 123.644 86.495 123.441 86.4441C123.288 86.3425 123.085 86.2917 122.831 86.2917C122.577 86.2917 122.373 86.3425 122.221 86.4441C122.069 86.5458 121.916 86.6474 121.764 86.7999C121.662 86.9523 121.56 87.1048 121.51 87.3081C121.459 87.5114 121.408 87.7146 121.408 87.9179C121.408 88.1212 121.459 88.3245 121.51 88.5278C121.56 88.731 121.662 88.8835 121.814 89.0359C121.916 89.1884 122.069 89.29 122.272 89.3409C122.424 89.4425 122.628 89.4425 122.882 89.4425C123.136 89.4425 123.339 89.3917 123.492 89.29C123.644 89.1884 123.796 89.0868 123.949 88.9343L124.559 89.5441C124.355 89.7982 124.101 89.9507 123.796 90.0523C123.492 90.154 123.187 90.2048 122.882 90.2048C122.526 90.2048 122.221 90.154 121.916 90.0523C121.611 89.9507 121.357 89.7982 121.154 89.595C120.951 89.3917 120.798 89.1376 120.646 88.8327C120.544 88.5278 120.493 88.2228 120.493 87.8671C120.493 87.5114 120.544 87.2064 120.646 86.9015C120.747 86.5966 120.9 86.3425 121.103 86.1392C121.306 85.936 121.56 85.7835 121.865 85.631C122.17 85.5294 122.475 85.4786 122.831 85.4786C123.136 85.4786 123.492 85.5294 123.796 85.631C124.101 85.7327 124.355 85.936 124.559 86.1901L123.949 86.7999Z" fill="#231F20"/>
<path d="M125.423 82.9376H126.287V86.2917C126.388 86.0376 126.592 85.8343 126.846 85.7327C127.1 85.5802 127.405 85.5294 127.761 85.5294C127.964 85.5294 128.167 85.5802 128.37 85.6311C128.574 85.6819 128.726 85.7835 128.879 85.936C129.031 86.0884 129.133 86.2409 129.234 86.495C129.336 86.6983 129.387 86.9524 129.387 87.2573V90.154H128.523V87.5114C128.523 87.3081 128.472 87.1048 128.421 86.9524C128.37 86.7999 128.269 86.6983 128.218 86.5966C128.116 86.495 128.015 86.4442 127.913 86.3934C127.811 86.3425 127.659 86.3425 127.506 86.3425C127.354 86.3425 127.151 86.3934 126.998 86.4442C126.846 86.495 126.693 86.5966 126.592 86.6983C126.49 86.7999 126.388 87.0032 126.338 87.1556C126.287 87.3589 126.236 87.5622 126.236 87.8163V90.154H125.372V82.9376H125.423Z" fill="#231F20"/>
<path fill-rule="evenodd" clip-rule="evenodd" d="M41.418 54.631C41.418 47.3638 47.0081 41.3163 54.8852 41.3163C62.7622 41.3163 68.3015 47.313 68.3015 54.5294V54.5802C68.3015 61.8474 62.7114 67.8949 54.8343 67.8949C46.9065 67.8949 41.418 61.8982 41.418 54.6818V54.631ZM54.8343 63.7785C59.9671 63.7785 63.5245 59.713 63.5245 54.7327V54.6818C63.5245 49.7015 59.8655 45.5343 54.7835 45.5343C49.6507 45.5343 46.0934 49.5999 46.0934 54.5802V54.631C46.0934 59.6113 49.7524 63.7785 54.8343 63.7785Z" fill="#231F20"/>
<path d="M72.1641 67.4884H76.687V41.7737H72.1641V67.4884Z" fill="#231F20"/>
<path d="M93.8132 63.7786C88.8837 63.7786 85.3263 59.6622 85.3263 54.6311V54.5803C85.3263 49.5491 88.8837 45.5344 93.8132 45.5344C96.7607 45.5344 98.946 46.8049 101.03 48.736L103.926 45.3819C101.487 43.0442 98.5902 41.3672 93.864 41.3672C86.0886 41.3672 80.6001 47.3639 80.6001 54.6819V54.7327C80.6001 62.1016 86.1903 67.9458 93.6607 67.9458C98.4886 67.9458 101.385 66.1672 104.079 63.3721L101.182 60.4245C98.9968 62.5081 96.964 63.7786 93.8132 63.7786Z" fill="#231F20"/>
<path fill-rule="evenodd" clip-rule="evenodd" d="M128.726 50.0065C128.726 54.2246 126.185 56.7655 122.577 57.7819L129.539 67.5393H124.203L117.902 58.5951H117.851H112.261V67.5393H107.738V41.8246H119.172C122.425 41.8246 124.915 42.7902 126.592 44.4164C127.964 45.7885 128.726 47.7197 128.726 49.9557V50.0065ZM112.261 45.8902V54.5295H118.867C122.12 54.5295 124.153 52.8016 124.153 50.2098V50.159C124.153 47.4147 122.171 45.8902 118.816 45.8902H112.261Z" fill="#231F20"/>
<path d="M142.752 38.1655V94.0671" stroke="#CCCCCC" stroke-width="2"/>
<path fill-rule="evenodd" clip-rule="evenodd" d="M155.813 59.154C156.728 59.5606 157.795 59.7639 158.913 59.7639C160.031 59.7639 161.098 59.5606 162.013 59.154C162.928 58.7475 163.741 58.2393 164.452 57.5278C165.164 56.8163 165.672 56.0032 166.079 55.0377C166.434 54.1229 166.638 53.0557 166.638 51.9377C166.638 50.8196 166.485 49.8032 166.079 48.8377C165.672 47.8721 165.113 47.059 164.452 46.3475C163.792 45.636 162.979 45.1278 162.013 44.7213C161.098 44.3147 160.031 44.1115 158.913 44.1115C157.795 44.1115 156.779 44.3147 155.813 44.7213C154.898 45.1278 154.085 45.636 153.374 46.3475C152.662 47.059 152.154 47.8721 151.747 48.8377C151.392 49.7524 151.188 50.8196 151.188 51.9377C151.188 53.0557 151.341 54.0721 151.747 55.0377C152.154 56.0032 152.713 56.8163 153.374 57.5278C154.034 58.2393 154.847 58.7475 155.813 59.154ZM161.302 57.6295C160.59 57.9852 159.777 58.1377 158.913 58.1377C158.049 58.1377 157.236 57.9852 156.525 57.6295C155.762 57.3245 155.152 56.8672 154.644 56.3082C154.136 55.7491 153.729 55.0885 153.425 54.3262C153.17 53.6147 153.018 52.8016 153.018 51.9377C153.018 51.1246 153.12 50.3114 153.425 49.5491C153.729 48.7869 154.136 48.1262 154.644 47.5672C155.203 47.0082 155.813 46.5508 156.525 46.2459C157.236 45.8901 158.049 45.7377 158.913 45.7377C159.777 45.7377 160.59 45.941 161.302 46.2459C162.064 46.5508 162.674 47.0082 163.182 47.5672C163.69 48.1262 164.097 48.7869 164.402 49.5491C164.656 50.2606 164.808 51.0737 164.808 51.9377C164.808 52.7508 164.706 53.5639 164.402 54.3262C164.097 55.0885 163.69 55.7491 163.182 56.3082C162.623 56.8672 162.013 57.3245 161.302 57.6295Z" fill="black"/>
<path d="M169.077 51.8868C169.077 51.4295 169.077 51.0229 169.026 50.6164C168.976 50.2098 168.976 49.8541 168.976 49.5491H170.551C170.551 49.8032 170.551 50.0573 170.551 50.3623C170.551 50.6672 170.551 50.9213 170.551 51.1754H170.602C170.703 50.9213 170.856 50.718 171.059 50.4639C171.263 50.2606 171.517 50.0573 171.771 49.8541C172.076 49.7016 172.381 49.5491 172.736 49.4475C173.092 49.3459 173.448 49.295 173.854 49.295C174.515 49.295 175.074 49.3967 175.531 49.6C175.989 49.8032 176.395 50.0573 176.7 50.4131C177.005 50.7688 177.259 51.1754 177.361 51.6836C177.513 52.1918 177.564 52.7 177.564 53.3098V59.4081H175.938V53.5131C175.938 52.7 175.735 52.0393 175.379 51.5311C175.023 51.0737 174.464 50.8196 173.651 50.8196C173.143 50.8196 172.635 50.9213 172.279 51.0737C171.872 51.277 171.567 51.5311 171.313 51.836C171.059 52.1918 170.907 52.5475 170.754 53.0557C170.602 53.5639 170.551 54.0213 170.551 54.5803V59.3573H168.925V51.8868H169.077Z" fill="black"/>
<path d="M186.051 50.9212H183.154V55.8507C183.154 56.1557 183.154 56.4606 183.154 56.7655C183.154 57.0196 183.205 57.2737 183.307 57.477C183.408 57.6802 183.561 57.8327 183.764 57.9852C183.967 58.0868 184.221 58.1884 184.628 58.1884C184.882 58.1884 185.136 58.1376 185.339 58.0868C185.543 58.036 185.848 57.9343 186.051 57.8327L186.102 59.3065C185.797 59.4081 185.492 59.5097 185.187 59.5606C184.831 59.6114 184.526 59.6622 184.221 59.6622C183.612 59.6622 183.154 59.5606 182.799 59.4081C182.443 59.2557 182.189 59.0524 181.985 58.7475C181.782 58.4425 181.68 58.1376 181.579 57.7311C181.528 57.3245 181.477 56.8671 181.477 56.3589V50.9721H179.343V49.5999H181.477V46.754H183.103V49.5491H186V50.9212H186.051Z" fill="black"/>
<path fill-rule="evenodd" clip-rule="evenodd" d="M189.557 49.6508C188.897 49.9049 188.287 50.3114 187.779 50.8196L188.744 51.7852C189.151 51.4295 189.608 51.1245 190.116 50.9721C190.625 50.8196 191.184 50.718 191.692 50.718C192.454 50.718 193.064 50.9213 193.47 51.277C193.928 51.6327 194.131 52.1918 194.131 52.9032V53.2082H193.521C192.955 53.2082 192.345 53.2519 191.692 53.2989C191.641 53.3025 191.59 53.3061 191.539 53.3098C190.828 53.3606 190.116 53.5131 189.507 53.7163C188.897 53.9196 188.338 54.2754 187.931 54.7327C187.525 55.1901 187.321 55.8508 187.321 56.6639C187.321 57.1721 187.423 57.5786 187.626 57.9344C187.829 58.2901 188.134 58.595 188.439 58.8491C188.795 59.1032 189.151 59.3065 189.608 59.4081C190.066 59.5606 190.523 59.6114 191.031 59.6114C191.793 59.6114 192.403 59.4081 192.962 59.1032C193.47 58.7983 193.928 58.3918 194.233 57.8836H194.284V58.595C194.284 58.8999 194.334 59.154 194.385 59.3573H195.961C195.934 59.2239 195.921 59.0906 195.908 58.9498C195.896 58.8225 195.883 58.6891 195.859 58.5442C195.808 58.2393 195.808 57.9852 195.808 57.6803V53.4623C195.808 52.0393 195.503 51.0229 194.843 50.3114C194.182 49.6508 193.166 49.295 191.692 49.295C190.98 49.295 190.269 49.3967 189.557 49.6508ZM190.066 55.1393C190.675 54.8344 191.488 54.6819 192.556 54.6819V54.7327H194.233V55.3426C194.233 55.7491 194.131 56.1557 194.029 56.5114C193.877 56.8672 193.725 57.1721 193.47 57.4262C193.216 57.7311 192.911 57.9344 192.556 58.0868C192.2 58.2393 191.743 58.3409 191.285 58.3409C190.675 58.3409 190.167 58.1885 189.761 57.9344C189.354 57.6803 189.151 57.2229 189.151 56.6131C189.151 55.9016 189.456 55.4442 190.066 55.1393Z" fill="black"/>
<path d="M198.654 51.8868C198.654 51.4295 198.654 51.0229 198.603 50.6164C198.552 50.2098 198.552 49.8541 198.552 49.5491H200.128C200.128 49.8032 200.128 50.0573 200.128 50.3623C200.128 50.6672 200.128 50.9213 200.128 51.1754H200.178C200.28 50.9213 200.433 50.718 200.636 50.4639C200.839 50.2606 201.093 50.0573 201.347 49.8541C201.652 49.7016 201.957 49.5491 202.313 49.4475C202.669 49.3459 203.024 49.295 203.431 49.295C203.533 49.295 203.634 49.295 203.787 49.295C203.888 49.295 203.99 49.3459 204.142 49.3967L204.041 51.0737C203.736 50.9721 203.482 50.9721 203.177 50.9721C202.16 50.9721 201.449 51.277 200.992 51.9377C200.534 52.5983 200.331 53.4623 200.331 54.6311V59.4081H198.654V51.8868Z" fill="black"/>
<path fill-rule="evenodd" clip-rule="evenodd" d="M206.074 44.8229C205.819 45.077 205.718 45.3819 205.718 45.6868C205.718 46.0426 205.819 46.3475 206.074 46.5508C206.277 46.8049 206.582 46.9065 206.937 46.9065C207.293 46.9065 207.598 46.754 207.801 46.5508C208.055 46.3475 208.157 46.0426 208.157 45.6868C208.157 45.3311 208.055 45.077 207.801 44.8229C207.547 44.5688 207.293 44.4672 206.937 44.4672C206.582 44.4672 206.328 44.5688 206.074 44.8229ZM207.7 49.5491H206.074V59.4081H207.7V49.5491Z" fill="black"/>
<path fill-rule="evenodd" clip-rule="evenodd" d="M210.647 52.395C210.393 53.0048 210.241 53.7163 210.241 54.4786C210.241 55.2409 210.393 55.9524 210.647 56.5622C210.952 57.172 211.308 57.7311 211.765 58.1884C212.223 58.6458 212.782 59.0015 213.442 59.2556C214.052 59.5097 214.764 59.6114 215.526 59.6114C216.288 59.6114 216.949 59.5097 217.61 59.2556C218.27 59.0015 218.829 58.6458 219.287 58.1884C219.795 57.7311 220.151 57.172 220.405 56.5622C220.659 55.9524 220.811 55.2409 220.811 54.4786C220.811 53.7163 220.659 53.0048 220.405 52.395C220.1 51.7852 219.744 51.2262 219.287 50.7688C218.829 50.3114 218.27 49.9557 217.61 49.7016C217 49.4475 216.288 49.3458 215.526 49.3458C214.764 49.3458 214.103 49.4475 213.442 49.7016C212.782 49.9557 212.223 50.3114 211.765 50.7688C211.257 51.2262 210.901 51.7852 210.647 52.395ZM212.274 55.9016C212.121 55.495 212.019 54.9868 212.019 54.4786C212.019 53.9704 212.121 53.4622 212.274 53.0557C212.426 52.5983 212.68 52.1917 212.985 51.8868C213.29 51.5819 213.696 51.3278 214.103 51.1245C214.51 50.9212 215.018 50.8196 215.526 50.8196C216.034 50.8196 216.542 50.9212 216.949 51.1245C217.406 51.277 217.762 51.5819 218.067 51.8868C218.372 52.2425 218.626 52.5983 218.778 53.0557C218.931 53.4622 219.033 53.9704 219.033 54.4786C219.033 54.9868 218.931 55.4442 218.778 55.9016C218.626 56.3589 218.372 56.7655 218.067 57.0704C217.762 57.3753 217.355 57.6294 216.949 57.8327C216.542 58.036 216.034 58.1376 215.526 58.1376C215.018 58.1376 214.51 58.036 214.103 57.8327C213.646 57.6802 213.29 57.3753 212.985 57.0704C212.68 56.7147 212.426 56.3589 212.274 55.9016Z" fill="black"/>
<path d="M229.197 44.5181H230.975V50.8197H238.903V44.5181H240.682V59.4082H238.903V52.4459H230.975V59.4082H229.197V44.5181Z" fill="black"/>
<path fill-rule="evenodd" clip-rule="evenodd" d="M250.795 59.2048C251.507 58.8999 252.116 58.3917 252.726 57.6294L251.456 56.7147C251.049 57.2229 250.643 57.5786 250.134 57.8327C249.626 58.0868 249.016 58.1884 248.305 58.1884C247.898 58.1884 247.441 58.0868 247.085 57.9343C246.73 57.7819 246.425 57.5786 246.12 57.2737C245.866 56.9688 245.612 56.6638 245.459 56.2573C245.307 55.8507 245.205 55.4442 245.154 55.0376H253.082V54.5294C253.082 53.7163 252.98 53.0048 252.726 52.3442C252.472 51.6835 252.167 51.1753 251.761 50.718C251.354 50.2606 250.846 49.9557 250.287 49.7016C249.728 49.4475 249.118 49.3458 248.407 49.3458C247.644 49.3458 246.984 49.4475 246.374 49.7016C245.764 49.9557 245.256 50.3114 244.798 50.7688C244.341 51.2262 243.985 51.7343 243.731 52.395C243.477 53.0048 243.375 53.7163 243.375 54.4786C243.375 55.1901 243.477 55.9016 243.731 56.5114C243.935 57.1212 244.29 57.6802 244.697 58.1376C245.154 58.595 245.662 59.0015 246.272 59.2556C246.882 59.5097 247.594 59.6622 248.356 59.6622C249.271 59.6622 250.084 59.5097 250.795 59.2048ZM250.49 51.5819C250.998 52.0901 251.253 52.7507 251.303 53.6147H245.154C245.256 52.7507 245.612 52.0901 246.171 51.5819C246.73 51.0737 247.441 50.8196 248.356 50.8196C249.271 50.8196 249.982 51.0737 250.49 51.5819Z" fill="black"/>
<path d="M255.47 51.8868C255.47 51.4295 255.47 51.0229 255.419 50.6164C255.369 50.2098 255.369 49.8541 255.369 49.5491H256.944C256.944 49.8032 256.944 50.0573 256.944 50.3623C256.944 50.6672 256.944 50.9213 256.944 51.1754H256.995C257.097 50.9213 257.249 50.718 257.452 50.4639C257.656 50.2606 257.91 50.0573 258.164 49.8541C258.469 49.7016 258.774 49.5491 259.129 49.4475C259.485 49.3459 259.841 49.295 260.247 49.295C260.349 49.295 260.451 49.295 260.603 49.295C260.705 49.295 260.806 49.3459 260.959 49.3967L260.857 51.0737C260.552 50.9721 260.298 50.9721 259.993 50.9721C258.977 50.9721 258.265 51.277 257.808 51.9377C257.351 52.5983 257.147 53.4623 257.147 54.6311V59.4081H255.521V51.8868H255.47Z" fill="black"/>
<path fill-rule="evenodd" clip-rule="evenodd" d="M269.242 59.2048C269.954 58.8999 270.564 58.3917 271.174 57.6294L269.903 56.7147C269.497 57.2229 269.09 57.5786 268.582 57.8327C268.074 58.0868 267.464 58.1884 266.752 58.1884C266.346 58.1884 265.888 58.0868 265.533 57.9343C265.177 57.7819 264.872 57.5786 264.567 57.2737C264.313 56.9688 264.059 56.6638 263.906 56.2573C263.754 55.8507 263.652 55.4442 263.601 55.0376H271.529V54.5294C271.529 53.7163 271.428 53.0048 271.174 52.3442C270.919 51.6835 270.615 51.1753 270.208 50.718C269.801 50.2606 269.293 49.9557 268.734 49.7016C268.175 49.4475 267.565 49.3458 266.854 49.3458C266.092 49.3458 265.431 49.4475 264.821 49.7016C264.211 49.9557 263.703 50.3114 263.246 50.7688C262.788 51.2262 262.433 51.7343 262.178 52.395C261.924 53.0048 261.823 53.7163 261.823 54.4786C261.823 55.1901 261.924 55.9016 262.178 56.5114C262.382 57.1212 262.738 57.6802 263.144 58.1376C263.601 58.595 264.11 59.0015 264.719 59.2556C265.329 59.5097 266.041 59.6622 266.803 59.6622C267.718 59.6622 268.531 59.5097 269.242 59.2048ZM268.937 51.5819C269.446 52.0901 269.7 52.7507 269.751 53.6147H263.601C263.703 52.7507 264.059 52.0901 264.618 51.5819C265.177 51.0737 265.888 50.8196 266.803 50.8196C267.718 50.8196 268.429 51.0737 268.937 51.5819Z" fill="black"/>
<path fill-rule="evenodd" clip-rule="evenodd" d="M280.575 59.0524C281.287 58.6459 281.744 58.1885 282.1 57.6295H282.151V59.3573H283.777V43.4508H282.151V50.9213H282.1C281.642 50.4131 281.134 50.0065 280.524 49.7016C279.915 49.3967 279.254 49.2442 278.542 49.2442C277.729 49.2442 277.069 49.3967 276.408 49.6508C275.798 49.9049 275.239 50.2606 274.782 50.718C274.324 51.1754 273.969 51.7344 273.715 52.3442C273.461 53.0049 273.359 53.6655 273.359 54.4278C273.359 55.1901 273.461 55.9016 273.715 56.5114C273.918 57.1213 274.274 57.6803 274.731 58.1377C275.188 58.595 275.697 58.9508 276.306 59.2049C276.916 59.459 277.526 59.6114 278.238 59.6114C279.152 59.6114 279.915 59.459 280.575 59.0524ZM281.846 53.0557C281.998 53.4623 282.1 53.9705 282.1 54.4787C282.1 54.9869 281.998 55.4951 281.846 55.9016C281.693 56.359 281.439 56.7655 281.134 57.0705C280.829 57.3754 280.423 57.6295 280.016 57.8328C279.61 58.036 279.101 58.1377 278.593 58.1377C278.085 58.1377 277.577 58.036 277.17 57.8328C276.713 57.6803 276.357 57.3754 276.052 57.0705C275.747 56.7147 275.493 56.359 275.341 55.9016C275.188 55.4951 275.087 54.9869 275.087 54.4787C275.087 53.9705 275.188 53.5131 275.341 53.0557C275.493 52.5983 275.747 52.1918 276.052 51.8869C276.357 51.5819 276.764 51.3278 277.17 51.1246C277.577 50.9213 278.085 50.8196 278.593 50.8196C279.101 50.8196 279.61 50.9213 280.016 51.1246C280.474 51.277 280.829 51.5819 281.134 51.8869C281.439 52.2426 281.693 52.5983 281.846 53.0557Z" fill="black"/>
<path fill-rule="evenodd" clip-rule="evenodd" d="M286.775 44.8229C286.521 45.077 286.419 45.3819 286.419 45.6868C286.419 46.0426 286.521 46.3475 286.775 46.5508C286.978 46.8049 287.283 46.9065 287.639 46.9065C287.995 46.9065 288.3 46.754 288.503 46.5508C288.757 46.3475 288.859 46.0426 288.859 45.6868C288.859 45.3311 288.757 45.077 288.503 44.8229C288.249 44.5688 287.995 44.4672 287.639 44.4672C287.283 44.4672 287.029 44.5688 286.775 44.8229ZM288.401 49.5491H286.775V59.4081H288.401V49.5491Z" fill="black"/>
<path d="M296.939 50.9212H294.042V55.8507C294.042 56.1557 294.042 56.4606 294.042 56.7655C294.042 57.0196 294.093 57.2737 294.195 57.477C294.297 57.6802 294.449 57.8327 294.652 57.9852C294.856 58.0868 295.11 58.1884 295.516 58.1884C295.77 58.1884 296.024 58.1376 296.228 58.0868C296.431 58.036 296.736 57.9343 296.939 57.8327L296.99 59.3065C296.685 59.4081 296.38 59.5097 296.075 59.5606C295.719 59.6114 295.415 59.6622 295.11 59.6622C294.5 59.6622 294.042 59.5606 293.687 59.4081C293.331 59.2557 293.077 59.0524 292.874 58.7475C292.67 58.4425 292.569 58.1376 292.467 57.7311C292.416 57.3245 292.365 56.8671 292.365 56.3589V50.9721H290.231V49.5999H292.365V46.754H293.992V49.5491H296.888V50.9212H296.939Z" fill="black"/>
<path fill-rule="evenodd" clip-rule="evenodd" d="M300.446 49.6508C299.785 49.9049 299.175 50.3114 298.667 50.8196L299.632 51.7852C300.039 51.4295 300.496 51.1245 301.005 50.9721C301.513 50.8196 302.072 50.718 302.58 50.718C303.342 50.718 303.952 50.9213 304.359 51.277C304.816 51.6327 305.019 52.1918 305.019 52.9032V53.2082H304.409C303.843 53.2082 303.234 53.2519 302.58 53.2989C302.529 53.3025 302.479 53.3061 302.428 53.3098C301.716 53.3606 301.005 53.5131 300.395 53.7163C299.785 53.9196 299.226 54.2754 298.819 54.7327C298.413 55.1901 298.209 55.8508 298.209 56.6639C298.209 57.1721 298.311 57.5786 298.514 57.9344C298.718 58.2901 299.023 58.595 299.328 58.8491C299.683 59.1032 300.039 59.3065 300.496 59.4081C300.954 59.5606 301.411 59.6114 301.919 59.6114C302.682 59.6114 303.291 59.4081 303.85 59.1032C304.359 58.7983 304.816 58.3918 305.121 57.8836H305.172V58.595C305.172 58.8999 305.223 59.154 305.273 59.3573H306.849C306.822 59.2239 306.809 59.0906 306.796 58.9498C306.784 58.8225 306.771 58.6891 306.747 58.5442C306.696 58.2393 306.696 57.9852 306.696 57.6803V53.4623C306.696 52.0393 306.391 51.0229 305.731 50.3114C305.07 49.6508 304.054 49.295 302.58 49.295C301.868 49.295 301.157 49.3967 300.446 49.6508ZM300.954 55.1393C301.564 54.8344 302.377 54.6819 303.444 54.6819V54.7327H305.121V55.3426C305.121 55.7491 305.019 56.1557 304.918 56.5114C304.765 56.8672 304.613 57.1721 304.359 57.4262C304.105 57.7311 303.8 57.9344 303.444 58.0868C303.088 58.2393 302.631 58.3409 302.173 58.3409C301.564 58.3409 301.055 58.1885 300.649 57.9344C300.242 57.6803 300.039 57.2229 300.039 56.6131C300.039 55.9016 300.344 55.4442 300.954 55.1393Z" fill="black"/>
<path d="M309.593 51.8868C309.593 51.4295 309.593 51.0229 309.543 50.6164C309.492 50.2098 309.492 49.8541 309.492 49.5491H311.067C311.067 49.8032 311.067 50.0573 311.067 50.3623C311.067 50.6672 311.067 50.9213 311.067 51.1754H311.118C311.22 50.9213 311.372 50.718 311.575 50.4639C311.779 50.2606 312.033 50.0573 312.287 49.8541C312.592 49.7016 312.897 49.5491 313.252 49.4475C313.608 49.3459 313.964 49.295 314.37 49.295C314.472 49.295 314.574 49.295 314.726 49.295C314.828 49.295 314.929 49.3459 315.082 49.3967L314.98 51.0737C314.675 50.9721 314.421 50.9721 314.116 50.9721C313.1 50.9721 312.388 51.277 311.931 51.9377C311.474 52.5983 311.27 53.4623 311.27 54.6311V59.4081H309.644V51.8868H309.593Z" fill="black"/>
<path d="M320.469 61.6442C320.316 62.0508 320.113 62.4573 319.96 62.8131C319.808 63.1688 319.554 63.4737 319.351 63.677C319.096 63.9311 318.792 64.1344 318.487 64.236C318.131 64.3885 317.724 64.4393 317.216 64.4393C316.962 64.4393 316.708 64.4393 316.454 64.3885C316.2 64.3377 315.946 64.2868 315.742 64.1852L315.946 62.7622C316.098 62.8131 316.301 62.8639 316.454 62.9147C316.657 62.9147 316.86 62.9655 317.064 62.9655C317.572 62.9655 317.978 62.8131 318.233 62.5082C318.487 62.2032 318.69 61.7967 318.893 61.3393L319.554 59.5098L315.488 49.6H317.419L320.469 57.3246H320.519L323.467 49.6H325.246L320.469 61.6442Z" fill="black"/>
<path d="M162.42 72.8245C161.962 72.2147 161.403 71.7573 160.743 71.4524C160.082 71.1475 159.421 70.995 158.659 70.995C157.846 70.995 157.084 71.1475 156.372 71.5032C155.661 71.8589 155.102 72.3163 154.593 72.8753C154.085 73.4343 153.679 74.095 153.425 74.8573C153.12 75.6196 153.018 76.3819 153.018 77.195C153.018 78.0589 153.17 78.872 153.425 79.6343C153.729 80.3966 154.085 81.0573 154.593 81.6163C155.102 82.1753 155.711 82.6327 156.372 82.9376C157.084 83.2425 157.846 83.4458 158.659 83.4458C159.574 83.4458 160.387 83.2425 161.098 82.8868C161.81 82.531 162.42 82.0229 162.979 81.3622L164.3 82.4802C163.639 83.395 162.826 84.0556 161.861 84.4622C160.895 84.8687 159.828 85.072 158.659 85.072C157.592 85.072 156.575 84.8687 155.661 84.4622C154.746 84.0556 153.933 83.5474 153.272 82.836C152.611 82.1245 152.052 81.3114 151.697 80.3458C151.341 79.3802 151.138 78.3638 151.138 77.195C151.138 76.077 151.341 75.0606 151.697 74.1458C152.052 73.1802 152.611 72.3671 153.272 71.6557C153.933 70.9442 154.746 70.3852 155.661 69.9786C156.575 69.5721 157.592 69.3688 158.71 69.3688C159.726 69.3688 160.692 69.5721 161.607 69.9278C162.521 70.2835 163.334 70.8934 163.944 71.7065L162.42 72.8245Z" fill="black"/>
<path fill-rule="evenodd" clip-rule="evenodd" d="M168.01 74.9081C167.349 75.1622 166.739 75.5688 166.231 76.077L167.197 77.0425C167.603 76.6868 168.061 76.3819 168.569 76.2294C169.077 76.077 169.636 75.9753 170.144 75.9753C170.907 75.9753 171.517 76.1786 171.923 76.5343C172.38 76.8901 172.584 77.4491 172.584 78.1606V78.4655H171.974C171.408 78.4655 170.798 78.5093 170.144 78.5562C170.094 78.5598 170.043 78.5635 169.992 78.5671C169.28 78.6179 168.569 78.7704 167.959 78.9737C167.349 79.177 166.79 79.5327 166.384 79.9901C165.977 80.4474 165.774 81.1081 165.774 81.9212C165.774 82.4294 165.876 82.836 166.079 83.1917C166.282 83.5474 166.587 83.8524 166.892 84.1065C167.248 84.3606 167.603 84.5638 168.061 84.6655C168.518 84.8179 168.976 84.8688 169.484 84.8688C170.246 84.8688 170.856 84.6655 171.415 84.3606C171.923 84.0556 172.38 83.6491 172.685 83.1409H172.736V83.8524C172.736 84.1573 172.787 84.4114 172.838 84.6147H174.413C174.387 84.4813 174.374 84.3479 174.361 84.2071C174.348 84.0798 174.336 83.9464 174.312 83.8015C174.261 83.4966 174.261 83.2425 174.261 82.9376V78.7196C174.261 77.2966 173.956 76.2802 173.295 75.5688C172.635 74.9081 171.618 74.5524 170.144 74.5524C169.433 74.5524 168.721 74.654 168.01 74.9081ZM168.518 80.3458C169.128 80.0409 169.941 79.8884 171.008 79.8884V79.9392H172.685V80.5491C172.685 80.9556 172.584 81.3622 172.482 81.7179C172.33 82.0737 172.177 82.3786 171.923 82.6327C171.669 82.9376 171.364 83.1409 171.008 83.2933C170.653 83.4458 170.195 83.5474 169.738 83.5474C169.128 83.5474 168.62 83.395 168.213 83.1409C167.807 82.8868 167.603 82.4294 167.603 81.8196C167.603 81.1081 167.908 80.6507 168.518 80.3458Z" fill="black"/>
<path d="M177.107 77.1442C177.107 76.6868 177.107 76.2802 177.056 75.8737C177.005 75.4671 177.005 75.1114 177.005 74.8065H178.58C178.58 75.0606 178.58 75.3147 178.58 75.6196C178.58 75.9245 178.58 76.1786 178.58 76.4327H178.631C178.733 76.1786 178.885 75.9753 179.089 75.7212C179.292 75.5179 179.546 75.3147 179.8 75.1114C180.105 74.9589 180.41 74.8065 180.766 74.7048C181.121 74.6032 181.477 74.5524 181.884 74.5524C182.544 74.5524 183.103 74.654 183.561 74.8573C184.018 75.0606 184.425 75.3147 184.73 75.6704C185.034 76.0261 185.289 76.4327 185.39 76.9409C185.543 77.4491 185.593 77.9573 185.593 78.5671V84.6655H183.967V78.7704C183.967 77.9573 183.764 77.2966 183.408 76.7884C183.052 76.3311 182.493 76.077 181.68 76.077C181.172 76.077 180.664 76.1786 180.308 76.3311C179.902 76.5343 179.597 76.7884 179.343 77.0933C179.089 77.4491 178.936 77.8048 178.784 78.313C178.631 78.8212 178.58 79.2786 178.58 79.8376V84.6147H176.954V77.1442H177.107Z" fill="black"/>
<path d="M195.706 77.2459C195.351 76.8393 194.995 76.5344 194.588 76.3311C194.182 76.1278 193.724 76.0262 193.267 76.0262C192.708 76.0262 192.251 76.1278 191.793 76.3311C191.387 76.5344 191.031 76.7885 190.777 77.1442C190.523 77.5 190.319 77.8557 190.167 78.3131C190.015 78.7704 189.964 79.2278 189.964 79.736C189.964 80.2442 190.065 80.7016 190.218 81.159C190.37 81.6163 190.624 81.9721 190.878 82.3278C191.183 82.6836 191.488 82.9377 191.895 83.1409C192.301 83.3442 192.759 83.4458 193.267 83.4458C194.334 83.4458 195.198 83.0393 195.757 82.2262L196.977 83.395C196.519 83.954 195.96 84.3606 195.3 84.6147C194.639 84.8688 193.978 84.9704 193.267 84.9704C192.505 84.9704 191.793 84.8688 191.183 84.6147C190.574 84.3606 190.015 84.0049 189.557 83.5475C189.1 83.0901 188.795 82.5311 188.541 81.9213C188.287 81.3114 188.185 80.5999 188.185 79.8377C188.185 79.0754 188.287 78.4147 188.541 77.754C188.795 77.1442 189.151 76.5852 189.557 76.1278C190.015 75.6704 190.523 75.3147 191.183 75.0606C191.793 74.8065 192.505 74.6541 193.267 74.6541C193.978 74.6541 194.69 74.7557 195.351 75.0098C196.011 75.2639 196.57 75.6704 197.078 76.1786L195.706 77.2459Z" fill="black"/>
<path fill-rule="evenodd" clip-rule="evenodd" d="M205.515 84.4114C206.226 84.1065 206.836 83.5983 207.446 82.836L206.176 81.9212C205.769 82.4294 205.362 82.7851 204.854 83.0392C204.346 83.2933 203.736 83.395 203.025 83.395C202.618 83.395 202.161 83.2933 201.805 83.1409C201.449 82.9884 201.144 82.7851 200.839 82.4802C200.585 82.1753 200.331 81.8704 200.179 81.4638C200.026 81.0573 199.925 80.6507 199.874 80.2442H207.802V79.736C207.802 78.9229 207.7 78.2114 207.446 77.5507C207.192 76.8901 206.887 76.3819 206.48 75.9245C206.074 75.4671 205.566 75.1622 205.007 74.9081C204.448 74.654 203.838 74.5524 203.126 74.5524C202.364 74.5524 201.703 74.654 201.094 74.9081C200.484 75.1622 199.976 75.5179 199.518 75.9753C199.061 76.4327 198.705 76.9409 198.451 77.6015C198.197 78.2114 198.095 78.9229 198.095 79.6852C198.095 80.3966 198.197 81.1081 198.451 81.7179C198.654 82.3278 199.01 82.8868 199.417 83.3442C199.874 83.8015 200.382 84.2081 200.992 84.4622C201.602 84.7163 202.313 84.8688 203.076 84.8688C203.99 84.8688 204.803 84.7163 205.515 84.4114ZM205.261 76.7884C205.769 77.2966 206.023 77.9573 206.074 78.8212H199.925C200.026 77.9573 200.382 77.2966 200.941 76.7884C201.5 76.2802 202.212 76.0261 203.126 76.0261C204.041 76.0261 204.753 76.2802 205.261 76.7884Z" fill="black"/>
<path d="M210.241 77.1442C210.241 76.6868 210.241 76.2802 210.19 75.8737C210.139 75.4671 210.139 75.1114 210.139 74.8065H211.715C211.715 75.0606 211.715 75.3147 211.715 75.6196C211.715 75.9245 211.715 76.1786 211.715 76.4327H211.765C211.867 76.1786 212.019 75.9753 212.223 75.7212C212.426 75.5179 212.68 75.3147 212.934 75.1114C213.239 74.9589 213.544 74.8065 213.9 74.7048C214.256 74.6032 214.611 74.5524 215.018 74.5524C215.119 74.5524 215.221 74.5524 215.374 74.5524C215.475 74.5524 215.577 74.6032 215.729 74.654L215.628 76.3311C215.323 76.2294 215.069 76.2294 214.764 76.2294C213.747 76.2294 213.036 76.5343 212.579 77.195C212.121 77.8556 211.918 78.7196 211.918 79.8884V84.6655H210.292V77.1442H210.241Z" fill="black"/>
<path fill-rule="evenodd" clip-rule="evenodd" d="M227.266 69.7245H223.454H223.403V84.5638H225.182V77.8556H227.469L231.484 84.5638H233.669L229.451 77.7032C230.62 77.5507 231.534 77.0933 232.195 76.4327C232.856 75.772 233.161 74.9081 233.161 73.7901C233.161 72.8753 233.008 72.1638 232.652 71.6048C232.297 71.0966 231.839 70.6901 231.28 70.3851C230.721 70.0802 230.112 69.9278 229.4 69.8261C228.689 69.7753 227.977 69.7245 227.266 69.7245ZM226.808 76.331H225.284V71.4015H227.774C228.18 71.4015 228.638 71.4524 229.044 71.5032C229.502 71.554 229.857 71.7065 230.213 71.8589C230.518 72.0622 230.823 72.3163 231.026 72.6212C231.23 72.9261 231.331 73.3835 231.331 73.8917C231.331 74.5015 231.23 75.0097 230.925 75.3146C230.62 75.6196 230.264 75.8737 229.807 76.0261C229.349 76.1786 228.841 76.2294 228.333 76.2802C227.825 76.331 227.316 76.331 226.808 76.331Z" fill="black"/>
<path fill-rule="evenodd" clip-rule="evenodd" d="M242.765 84.4114C243.477 84.1065 244.087 83.5983 244.697 82.836L243.426 81.9212C243.019 82.4294 242.613 82.7851 242.105 83.0392C241.597 83.2933 240.987 83.395 240.275 83.395C239.869 83.395 239.411 83.2933 239.056 83.1409C238.7 82.9884 238.395 82.7851 238.09 82.4802C237.836 82.1753 237.582 81.8704 237.429 81.4638C237.277 81.0573 237.175 80.6507 237.124 80.2442H245.052V79.736C245.052 78.9229 244.951 78.2114 244.697 77.5507C244.442 76.8901 244.137 76.3819 243.731 75.9245C243.324 75.4671 242.816 75.1622 242.257 74.9081C241.698 74.654 241.088 74.5524 240.377 74.5524C239.615 74.5524 238.954 74.654 238.344 74.9081C237.734 75.1622 237.226 75.5179 236.769 75.9753C236.311 76.4327 235.956 76.9409 235.701 77.6015C235.447 78.2114 235.346 78.9229 235.346 79.6852C235.346 80.3966 235.447 81.1081 235.701 81.7179C235.905 82.3278 236.26 82.8868 236.667 83.3442C237.124 83.8015 237.633 84.2081 238.242 84.4622C238.852 84.7163 239.564 84.8688 240.326 84.8688C241.241 84.8688 242.054 84.7163 242.765 84.4114ZM242.46 76.7884C242.969 77.2966 243.223 77.9573 243.274 78.8212H237.124C237.226 77.9573 237.582 77.2966 238.141 76.7884C238.7 76.2802 239.411 76.0261 240.326 76.0261C241.241 76.0261 241.952 76.2802 242.46 76.7884Z" fill="black"/>
<path d="M247.644 82.0737C247.949 82.4803 248.305 82.7852 248.711 83.0393C249.118 83.2934 249.575 83.395 250.185 83.395C250.439 83.395 250.693 83.3442 250.947 83.2934C251.201 83.2426 251.456 83.1409 251.659 83.0393C251.862 82.9376 252.015 82.7344 252.167 82.5819C252.269 82.3786 252.37 82.1754 252.37 81.9213C252.37 81.6672 252.319 81.4131 252.167 81.2606C252.065 81.1081 251.913 80.9557 251.71 80.854C251.506 80.7524 251.303 80.6508 251.049 80.5491C250.795 80.4983 250.541 80.3967 250.287 80.3458C249.829 80.2442 249.372 80.1426 248.965 79.9901C248.559 79.8885 248.152 79.6852 247.847 79.4819C247.542 79.2786 247.288 79.0245 247.085 78.6688C246.882 78.3639 246.78 77.9573 246.78 77.4491C246.78 76.9917 246.882 76.5344 247.085 76.1786C247.288 75.8229 247.593 75.518 247.949 75.2639C248.305 75.0098 248.711 74.8573 249.118 74.7049C249.575 74.6032 249.982 74.5016 250.439 74.5016C251.151 74.5016 251.811 74.654 252.37 74.9081C252.98 75.2131 253.437 75.6196 253.793 76.2803L252.421 77.195C252.218 76.8393 251.913 76.5852 251.608 76.3311C251.252 76.1278 250.846 76.0262 250.337 76.0262C250.134 76.0262 249.88 76.077 249.677 76.1278C249.423 76.1786 249.219 76.2803 249.067 76.3819C248.864 76.4836 248.711 76.636 248.61 76.7885C248.508 76.9409 248.406 77.1442 248.406 77.3983C248.406 77.6016 248.457 77.8049 248.61 77.9573C248.762 78.1098 248.915 78.2114 249.169 78.3639C249.423 78.4655 249.677 78.5672 249.982 78.6688C250.287 78.7704 250.592 78.8213 250.897 78.8721C251.354 78.9737 251.76 79.0754 252.116 79.177C252.523 79.3295 252.828 79.4819 253.133 79.736C253.437 79.9393 253.641 80.2442 253.844 80.5999C253.997 80.9557 254.098 81.3622 254.098 81.8196C254.098 82.3786 253.997 82.836 253.742 83.2426C253.539 83.6491 253.234 83.954 252.828 84.2081C252.472 84.4622 252.015 84.6147 251.557 84.7672C251.1 84.9196 250.592 84.9196 250.134 84.9196C249.27 84.9196 248.559 84.7672 247.949 84.5131C247.339 84.259 246.78 83.7508 246.323 83.0901L247.644 82.0737Z" fill="black"/>
<path fill-rule="evenodd" clip-rule="evenodd" d="M263.144 84.4114C263.856 84.1065 264.466 83.5983 265.075 82.836L263.805 81.9212C263.398 82.4294 262.992 82.7851 262.484 83.0392C261.975 83.2933 261.366 83.395 260.654 83.395C260.248 83.395 259.79 83.2933 259.434 83.1409C259.079 82.9884 258.774 82.7851 258.469 82.4802C258.215 82.1753 257.961 81.8704 257.808 81.4638C257.656 81.0573 257.554 80.6507 257.503 80.2442H265.431V79.736C265.431 78.9229 265.329 78.2114 265.075 77.5507C264.821 76.8901 264.516 76.3819 264.11 75.9245C263.703 75.4671 263.195 75.1622 262.636 74.9081C262.077 74.654 261.467 74.5524 260.756 74.5524C259.993 74.5524 259.333 74.654 258.723 74.9081C258.113 75.1622 257.605 75.5179 257.148 75.9753C256.69 76.4327 256.334 76.9409 256.08 77.6015C255.826 78.2114 255.725 78.9229 255.725 79.6852C255.725 80.3966 255.826 81.1081 256.08 81.7179C256.284 82.3278 256.639 82.8868 257.046 83.3442C257.503 83.8015 258.011 84.2081 258.621 84.4622C259.231 84.7163 259.943 84.8688 260.705 84.8688C261.62 84.8688 262.433 84.7163 263.144 84.4114ZM262.839 76.7884C263.348 77.2966 263.602 77.9573 263.652 78.8212H257.503C257.605 77.9573 257.961 77.2966 258.52 76.7884C259.079 76.2802 259.79 76.0261 260.705 76.0261C261.62 76.0261 262.331 76.2802 262.839 76.7884Z" fill="black"/>
<path fill-rule="evenodd" clip-rule="evenodd" d="M269.446 74.9081C268.785 75.1622 268.175 75.5688 267.667 76.077L268.632 77.0425C269.039 76.6868 269.496 76.3819 270.005 76.2294C270.513 76.077 271.072 75.9753 271.58 75.9753C272.342 75.9753 272.952 76.1786 273.359 76.5343C273.816 76.8901 274.019 77.4491 274.019 78.1606V78.4655H273.409C272.843 78.4655 272.234 78.5093 271.58 78.5562C271.529 78.5598 271.479 78.5635 271.428 78.5671C270.716 78.6179 270.005 78.7704 269.395 78.9737C268.785 79.177 268.226 79.5327 267.819 79.9901C267.413 80.4474 267.209 81.1081 267.209 81.9212C267.209 82.4294 267.311 82.836 267.514 83.1917C267.718 83.5474 268.023 83.8524 268.328 84.1065C268.683 84.3606 269.039 84.5638 269.496 84.6655C269.954 84.8179 270.411 84.8688 270.919 84.8688C271.682 84.8688 272.291 84.6655 272.85 84.3606C273.359 84.0556 273.816 83.6491 274.121 83.1409H274.172V83.8524C274.172 84.1573 274.223 84.4114 274.273 84.6147H275.849C275.822 84.4813 275.809 84.3479 275.796 84.2071C275.784 84.0798 275.771 83.9464 275.747 83.8015C275.696 83.4966 275.696 83.2425 275.696 82.9376V78.7196C275.696 77.2966 275.391 76.2802 274.731 75.5688C274.07 74.9081 273.054 74.5524 271.58 74.5524C270.868 74.5524 270.157 74.654 269.446 74.9081ZM269.954 80.3458C270.564 80.0409 271.377 79.8884 272.444 79.8884V79.9392H274.121V80.5491C274.121 80.9556 274.019 81.3622 273.918 81.7179C273.765 82.0737 273.613 82.3786 273.359 82.6327C273.105 82.9376 272.8 83.1409 272.444 83.2933C272.088 83.4458 271.631 83.5474 271.173 83.5474C270.564 83.5474 270.055 83.395 269.649 83.1409C269.242 82.8868 269.039 82.4294 269.039 81.8196C269.039 81.1081 269.344 80.6507 269.954 80.3458Z" fill="black"/>
<path d="M278.593 77.1442C278.593 76.6868 278.593 76.2802 278.543 75.8737C278.492 75.4671 278.492 75.1114 278.492 74.8065H280.067C280.067 75.0606 280.067 75.3147 280.067 75.6196C280.067 75.9245 280.067 76.1786 280.067 76.4327H280.118C280.22 76.1786 280.372 75.9753 280.575 75.7212C280.779 75.5179 281.033 75.3147 281.287 75.1114C281.592 74.9589 281.897 74.8065 282.252 74.7048C282.608 74.6032 282.964 74.5524 283.37 74.5524C283.472 74.5524 283.574 74.5524 283.726 74.5524C283.828 74.5524 283.929 74.6032 284.082 74.654L283.98 76.3311C283.675 76.2294 283.421 76.2294 283.116 76.2294C282.1 76.2294 281.388 76.5343 280.931 77.195C280.474 77.8556 280.27 78.7196 280.27 79.8884V84.6655H278.644V77.1442H278.593Z" fill="black"/>
<path d="M292.467 77.2459C292.111 76.8393 291.756 76.5344 291.349 76.3311C290.943 76.1278 290.485 76.0262 290.028 76.0262C289.469 76.0262 289.011 76.1278 288.554 76.3311C288.147 76.5344 287.792 76.7885 287.538 77.1442C287.284 77.5 287.08 77.8557 286.928 78.3131C286.775 78.7704 286.724 79.2278 286.724 79.736C286.724 80.2442 286.826 80.7016 286.979 81.159C287.131 81.6163 287.385 81.9721 287.639 82.3278C287.944 82.6836 288.249 82.9377 288.656 83.1409C289.062 83.3442 289.52 83.4458 290.028 83.4458C291.095 83.4458 291.959 83.0393 292.518 82.2262L293.738 83.395C293.28 83.954 292.721 84.3606 292.061 84.6147C291.4 84.8688 290.739 84.9704 290.028 84.9704C289.265 84.9704 288.554 84.8688 287.944 84.6147C287.334 84.3606 286.775 84.0049 286.318 83.5475C285.861 83.0901 285.556 82.5311 285.302 81.9213C285.047 81.3114 284.946 80.5999 284.946 79.8377C284.946 79.0754 285.047 78.4147 285.302 77.754C285.556 77.1442 285.911 76.5852 286.318 76.1278C286.775 75.6704 287.284 75.3147 287.944 75.0606C288.554 74.8065 289.265 74.6541 290.028 74.6541C290.739 74.6541 291.451 74.7557 292.111 75.0098C292.772 75.2639 293.331 75.6704 293.839 76.1786L292.467 77.2459Z" fill="black"/>
<path d="M295.465 68.7589H297.092V76.1786H297.142C297.244 75.9753 297.397 75.772 297.6 75.6196C297.803 75.4671 298.006 75.2638 298.311 75.1114C298.565 74.9589 298.87 74.8064 299.226 74.7556C299.582 74.654 299.938 74.6032 300.293 74.6032C300.954 74.6032 301.513 74.7048 301.97 74.9081C302.428 75.1114 302.834 75.3655 303.139 75.7212C303.444 76.0769 303.698 76.4835 303.8 76.9917C303.952 77.4999 304.003 78.0081 304.003 78.6179V84.7163H302.377V78.8212C302.377 78.0081 302.174 77.3474 301.818 76.8392C301.462 76.3819 300.903 76.1278 300.09 76.1278C299.582 76.1278 299.074 76.2294 298.718 76.3819C298.311 76.5851 298.006 76.8392 297.752 77.1441C297.498 77.4999 297.346 77.8556 297.193 78.3638C297.041 78.872 296.99 79.3294 296.99 79.8884V84.6655H295.364V68.7589H295.465Z" fill="black"/>
<path d="M312.998 69.7245H315.234L323.873 82.0737H323.924V69.7245H325.703V84.6146H323.467L314.828 72.2655H314.777V84.6146H312.998V69.7245Z" fill="black"/>
<path fill-rule="evenodd" clip-rule="evenodd" d="M335.765 84.4114C336.477 84.1065 337.087 83.5983 337.697 82.836L336.426 81.9212C336.019 82.4294 335.613 82.7851 335.105 83.0392C334.597 83.2933 333.987 83.395 333.275 83.395C332.869 83.395 332.411 83.2933 332.056 83.1409C331.7 82.9884 331.395 82.7851 331.09 82.4802C330.836 82.1753 330.582 81.8704 330.429 81.4638C330.277 81.0573 330.175 80.6507 330.124 80.2442H338.052V79.736C338.052 78.9229 337.951 78.2114 337.697 77.5507C337.442 76.8901 337.137 76.3819 336.731 75.9245C336.324 75.4671 335.816 75.1622 335.257 74.9081C334.698 74.654 334.088 74.5524 333.377 74.5524C332.615 74.5524 331.954 74.654 331.344 74.9081C330.734 75.1622 330.226 75.5179 329.769 75.9753C329.311 76.4327 328.956 76.9409 328.701 77.6015C328.447 78.2114 328.346 78.9229 328.346 79.6852C328.346 80.3966 328.447 81.1081 328.701 81.7179C328.905 82.3278 329.26 82.8868 329.667 83.3442C330.124 83.8015 330.633 84.2081 331.242 84.4622C331.852 84.7163 332.564 84.8688 333.326 84.8688C334.241 84.8688 335.054 84.7163 335.765 84.4114ZM335.511 76.7884C336.019 77.2966 336.274 77.9573 336.324 78.8212H330.175C330.277 77.9573 330.633 77.2966 331.192 76.7884C331.751 76.2802 332.462 76.0261 333.377 76.0261C334.292 76.0261 335.003 76.2802 335.511 76.7884Z" fill="black"/>
<path d="M345.879 76.1786H342.982V81.1081C342.982 81.4131 342.982 81.718 342.982 82.0229C342.982 82.277 343.033 82.5311 343.134 82.7344C343.236 82.9377 343.388 83.0901 343.592 83.2426C343.795 83.3442 344.049 83.4458 344.456 83.4458C344.71 83.4458 344.964 83.395 345.167 83.3442C345.37 83.2934 345.675 83.1917 345.879 83.0901L345.929 84.5639C345.624 84.6655 345.32 84.7672 345.015 84.818C344.659 84.8688 344.354 84.9196 344.049 84.9196C343.439 84.9196 342.982 84.818 342.626 84.6655C342.27 84.5131 342.016 84.3098 341.813 84.0049C341.61 83.6999 341.508 83.395 341.406 82.9885C341.356 82.5819 341.305 82.1245 341.305 81.6163V76.2295H339.17V74.8573H341.305V72.0623H342.931V74.8573H345.828V76.1786H345.879Z" fill="black"/>
<path d="M358.278 84.6655H356.652L353.857 77.0934H353.806L351.316 84.6655H349.639L346.438 74.8065H348.267L350.503 82.3786H350.554L353.095 74.8065H354.823L357.415 82.3786H357.465L359.701 74.8065H361.48L358.278 84.6655Z" fill="black"/>
<path fill-rule="evenodd" clip-rule="evenodd" d="M363.005 77.6524C362.751 78.2622 362.598 78.9737 362.598 79.736C362.598 80.4983 362.751 81.2098 363.005 81.8196C363.31 82.4294 363.665 82.9884 364.123 83.4458C364.58 83.9032 365.139 84.2589 365.8 84.513C366.41 84.7671 367.121 84.8688 367.883 84.8688C368.646 84.8688 369.306 84.7671 369.967 84.513C370.628 84.2589 371.187 83.9032 371.644 83.4458C372.152 82.9884 372.508 82.4294 372.762 81.8196C373.016 81.2098 373.169 80.4983 373.169 79.736C373.169 78.9737 373.016 78.2622 372.762 77.6524C372.457 77.0426 372.101 76.4835 371.644 76.0262C371.187 75.5688 370.628 75.213 369.967 74.9589C369.357 74.7048 368.646 74.6032 367.883 74.6032C367.121 74.6032 366.46 74.7048 365.8 74.9589C365.139 75.213 364.58 75.5688 364.123 76.0262C363.615 76.4835 363.259 77.0426 363.005 77.6524ZM364.631 81.1589C364.478 80.7524 364.377 80.2442 364.377 79.736C364.377 79.177 364.478 78.7196 364.631 78.313C364.783 77.8557 365.037 77.4491 365.342 77.1442C365.647 76.8393 366.054 76.5852 366.46 76.3819C366.867 76.1786 367.375 76.077 367.883 76.077C368.392 76.077 368.9 76.1786 369.306 76.3819C369.764 76.5344 370.119 76.8393 370.424 77.1442C370.729 77.4999 370.983 77.8557 371.136 78.313C371.288 78.7196 371.39 79.2278 371.39 79.736C371.39 80.2442 371.288 80.7016 371.136 81.1589C370.983 81.6163 370.729 82.0229 370.424 82.3278C370.119 82.6327 369.713 82.8868 369.306 83.0901C368.9 83.2934 368.392 83.395 367.883 83.395C367.375 83.395 366.867 83.2934 366.46 83.0901C366.003 82.9376 365.647 82.6327 365.342 82.3278C365.037 81.9721 364.783 81.6163 364.631 81.1589Z" fill="black"/>
<path d="M375.506 77.1442C375.506 76.6868 375.506 76.2802 375.456 75.8737C375.405 75.4671 375.405 75.1114 375.405 74.8065H376.98C376.98 75.0606 376.98 75.3147 376.98 75.6196C376.98 75.9245 376.98 76.1786 376.98 76.4327H377.031C377.133 76.1786 377.285 75.9753 377.488 75.7212C377.692 75.5179 377.946 75.3147 378.2 75.1114C378.505 74.9589 378.81 74.8065 379.165 74.7048C379.521 74.6032 379.877 74.5524 380.283 74.5524C380.385 74.5524 380.487 74.5524 380.639 74.5524C380.741 74.5524 380.842 74.6032 380.995 74.654L380.893 76.3311C380.588 76.2294 380.334 76.2294 380.029 76.2294C379.013 76.2294 378.301 76.5343 377.844 77.195C377.387 77.8556 377.183 78.7196 377.183 79.8884V84.6655H375.506V77.1442Z" fill="black"/>
<path d="M382.773 68.7589H384.4V79.1769L388.872 74.8573H391.21L386.432 79.3294L391.667 84.7163H389.228L384.349 79.5327V84.7163H382.723V68.7589H382.773Z" fill="black"/>
</svg>
